<?xml version="1.0" encoding="UTF-8"?>
<svg version="1.1" xmlns="http://www.w3.org/2000/svg" width="2380" height="654">
<path d="M0 0 C31.95729757 0.10548369 63.91457639 0.21536754 95.87183831 0.33111694 C99.6730223 0.3448811 103.47420642 0.35860901 107.27539062 0.37231445 C108.03191234 0.37504276 108.78843406 0.37777106 109.56788068 0.38058204 C121.7035669 0.42426215 133.83926117 0.46502779 145.97496124 0.50465261 C158.49347273 0.54559465 171.01196977 0.58981617 183.53045976 0.63687855 C190.53398957 0.66311913 197.53751787 0.68797579 204.54106522 0.70907402 C220.88305068 0.75895111 237.22453705 0.83602675 253.56605625 0.97207022 C255.84469169 0.99060337 258.12333749 1.00790738 260.40199184 1.02394724 C266.80869194 1.06910244 273.2145761 1.13335613 279.62072253 1.22959912 C281.51807682 1.25567168 283.41552596 1.27578164 285.31301427 1.28886497 C327.64259931 1.60614088 368.4839512 19.12385932 398.6875 48.625 C399.450625 49.40875 400.21375 50.1925 401 51 C401.51312744 51.49773926 402.02625488 51.99547852 402.55493164 52.50830078 C431.59641608 80.82446523 446.8437967 122.59492716 447.35375977 162.61865234 C447.45081831 175.93103563 447.32123623 189.03474627 444 202 C443.69400879 203.23266602 443.69400879 203.23266602 443.38183594 204.49023438 C435.74629588 234.65450762 421.60282026 260.48321426 400 283 C399.3503125 283.67804688 398.700625 284.35609375 398.03125 285.0546875 C395.1831786 287.9630994 392.37988728 290.70167665 389 293 C390.0745681 296.22370429 390.6055631 296.74568921 393.125 298.8125 C419.24760771 321.13630838 436.20843004 346.17618733 446.375 379.25 C446.7148291 380.34501831 446.7148291 380.34501831 447.06152344 381.4621582 C451.25028478 395.91653427 452.44052045 410.10721747 452.44140625 425.0703125 C452.45322576 426.84855203 452.46660079 428.62678181 452.48143005 430.40499878 C452.51721601 435.03834307 452.53769389 439.67160096 452.55297852 444.30505371 C452.57802656 451.72344871 452.61815012 459.14165295 452.67487907 466.55987167 C452.69092203 469.11809813 452.69495781 471.67613555 452.69789124 474.23440552 C452.59217487 493.39529202 452.59217487 493.39529202 458.5 511.3125 C458.8511084 511.97636719 459.2022168 512.64023437 459.56396484 513.32421875 C466.65958764 526.09323448 479.55386403 535.40126241 493.55859375 539.546875 C498.99278242 540.55546042 504.4881817 540.732436 510 541 C510 545.95 510 550.9 510 556 C467.76 556 425.52 556 382 556 C381.625 493.1875 381.625 493.1875 381.52197266 473.46166992 C381.48199828 467.55160407 381.48199828 467.55160407 381.43954468 461.64155579 C381.42202833 459.03901439 381.40743335 456.43662547 381.39730835 453.83406067 C381.254476 418.76239669 378.48043395 389.54511411 355 362 C354.42894531 361.32710938 353.85789062 360.65421875 353.26953125 359.9609375 C340.25455329 345.88547985 316.90064891 333.66470824 297.68295574 332.8613348 C295.77622695 332.85165597 295.77622695 332.85165597 293.83097839 332.84178162 C293.12025171 332.83684364 292.40952503 332.83190566 291.67726117 332.82681805 C289.30201429 332.81149214 286.92679433 332.80309578 284.55151367 332.79467773 C282.84636194 332.78509535 281.14121257 332.77508506 279.43606567 332.76467896 C274.81049132 332.73766289 270.18490679 332.71663547 265.55929732 332.69667697 C260.72394572 332.67479707 255.88862535 332.64741819 251.05329895 332.62062073 C241.89845501 332.57072094 232.74359371 332.52577204 223.58871585 332.48259836 C213.16556115 332.4332028 202.74243779 332.37829326 192.31931341 332.32291877 C170.87957147 332.20914039 149.43979961 332.10229232 128 332 C128.01110306 333.26374451 128.02220612 334.52748901 128.03364563 335.82952881 C128.13527704 347.77522062 128.21008788 359.72082399 128.25906086 371.66685104 C128.28508539 377.80754453 128.32035319 383.94788725 128.37719727 390.08837891 C128.43177127 396.02119617 128.4614742 401.95367735 128.47438622 407.88672638 C128.48358057 410.14322444 128.50153453 412.3997054 128.52865028 414.65605927 C128.8289686 440.69640534 128.8289686 440.69640534 118.875 451.9375 C110.37312133 459.77117082 100.50676906 462.41227631 89.19140625 462.2734375 C80.16832525 461.5003461 72.29710833 457.45127483 66 451 C59.58325356 442.55884981 56.6870307 435.37700305 56.75949097 424.85049438 C56.75778212 423.93881921 56.75607327 423.02714404 56.75431263 422.08784235 C56.75102309 419.03846162 56.7620127 415.9893018 56.77294922 412.93994141 C56.77351345 410.75189214 56.77319654 408.5638425 56.77206421 406.37579346 C56.77149015 400.43828842 56.7832531 394.50086412 56.79721212 388.56337786 C56.80971061 382.35739075 56.81088929 376.15140181 56.81326294 369.94540405 C56.81912682 358.86263455 56.83357156 347.77989845 56.85254838 336.6971442 C56.86968148 326.63777896 56.882169 316.57841967 56.89013672 306.51904297 C56.89066217 305.85750629 56.89118761 305.19596961 56.89172898 304.51438637 C56.89433912 301.19554641 56.89686201 297.87670639 56.89935279 294.55786633 C56.92026057 267.03855218 56.95694004 239.51928902 57 212 C80.76 212 104.52 212 129 212 C129 228.17 129 244.34 129 261 C148.14 261 167.28 261 187 261 C187 238.23 187 215.46 187 192 C176.36007812 192.01160156 165.72015625 192.02320313 154.7578125 192.03515625 C147.85807266 192.04028919 140.95833427 192.045147 134.05859375 192.04882812 C123.20035302 192.05466916 112.34212036 192.06140384 101.48388672 192.07543945 C55.31194546 192.13395397 9.16417602 191.8905071 -37 191 C-37.03316243 189.54499817 -37.06632487 188.08999634 -37.0994873 186.63499451 C-37.12061836 185.70812112 -37.14174942 184.78124773 -37.16352081 183.82628727 C-37.20968425 181.80035538 -37.25580094 179.77442242 -37.30187225 177.74848843 C-37.39624032 173.6007832 -37.49083739 169.45308814 -37.58813477 165.30545044 C-37.65520417 162.44457229 -37.71867289 159.5836357 -37.78125 156.72265625 C-37.8028418 155.83574097 -37.82443359 154.94882568 -37.84667969 154.03503418 C-38.01019792 146.37401022 -38.01094167 138.71549964 -38.0057373 131.05296326 C-38.00532314 129.89285091 -38.00490898 128.73273856 -38.00448227 127.53747129 C-38.00340654 124.69164707 -38.00190042 121.84582377 -38 119 C3.27732642 118.96708354 44.55342856 119.0439778 85.83046075 119.19354334 C93.80337026 119.22238835 101.77628405 119.24996339 109.74919816 119.27750319 C123.95202374 119.32659327 138.1548459 119.37660374 152.35766602 119.42724609 C166.10343249 119.47625666 179.8492005 119.52480069 193.5949707 119.57275391 C194.45114728 119.5757409 195.30732385 119.5787279 196.18944518 119.58180541 C200.48728526 119.59679679 204.78512537 119.61177938 209.08296549 119.62675762 C244.38864851 119.74981135 279.69432597 119.87439707 315 120 C315 124.95 315 129.9 315 135 C312.9375 135.226875 310.875 135.45375 308.75 135.6875 C297.02729693 137.38746903 287.60974989 142.22291806 278 149 C277.34128906 149.46019531 276.68257813 149.92039063 276.00390625 150.39453125 C267.27079347 157.14372977 260.76753947 169.14416992 259 180 C258.88486099 182.67535796 258.8155058 185.32728641 258.79467773 188.00317383 C258.78477814 188.79394318 258.77487854 189.58471252 258.76467896 190.39944458 C258.73320074 193.00194346 258.70836086 195.60446057 258.68359375 198.20703125 C258.6630124 200.0159298 258.64201562 201.82482366 258.62062073 203.63371277 C258.56552203 208.38638509 258.5160591 213.13909993 258.46777344 217.8918457 C258.41746915 222.74499276 258.36182975 227.59807834 258.30664062 232.45117188 C258.19920837 241.96739535 258.09773043 251.48367229 258 261 C262.79368933 260.89927984 267.58700886 260.7884879 272.38026428 260.66888428 C274.00644288 260.62966363 275.63268705 260.59306128 277.25898743 260.55926514 C288.90775434 260.31483376 299.84680861 259.65171083 311 256 C312.06863281 255.65066406 313.13726562 255.30132812 314.23828125 254.94140625 C337.61606028 246.17852929 356.82466844 227.57939502 367.2421875 205.140625 C377.76942042 181.16636324 377.16699466 156.05481726 368.5078125 131.6328125 C364.2606284 121.39995962 358.38157312 112.27174427 351 104 C350.27425781 103.18015625 349.54851562 102.3603125 348.80078125 101.515625 C334.14318708 85.91316112 312.70513467 74.43727377 291.11734486 73.57654953 C286.48476908 73.45244958 281.85265219 73.39519332 277.21875 73.34765625 C275.11932898 73.31601421 273.01992307 73.28335605 270.92053223 73.24977112 C263.94722553 73.14439349 256.97372498 73.07128265 250 73 C247.49120971 72.97266659 244.98242067 72.94521941 242.47363281 72.91766357 C225.86647096 72.73890252 209.25913799 72.60302506 192.65147495 72.48258841 C185.68322796 72.43194302 178.71501163 72.37752106 171.7467947 72.32291877 C157.49789158 72.21134341 143.24895629 72.10457394 129 72 C129 82.89 129 93.78 129 105 C105.24 105 81.48 105 57 105 C56.6875 85.375 56.6875 85.375 56.61206055 79.27490234 C56.28658834 60.49138512 53.68262953 46.4375294 40.40625 32.3203125 C28.82506203 21.15273838 15.54861676 17.59845593 0 16 C0 10.72 0 5.44 0 0 Z " fill="#FEFEFE" transform="translate(102,48)"/>
<path d="M0 0 C231.8692032 0 231.8692032 0 254.6484375 21.44140625 C270.48092079 38.66777926 272.31757513 61.92246234 272.26069641 84.20355225 C272.26372323 85.902226 272.26761535 87.60089839 272.27228898 89.29956841 C272.2825095 93.93065872 272.28040243 98.5616711 272.27610838 103.19276762 C272.27363027 108.20178262 272.28266876 113.21077938 272.29014587 118.2197876 C272.30286507 128.01908407 272.30469002 137.8183531 272.30234561 147.61765644 C272.3005591 155.58723233 272.30231923 163.55679992 272.30657005 171.52637482 C272.30716524 172.66272978 272.30776043 173.79908474 272.30837366 174.96987469 C272.30958547 177.27875406 272.3107996 179.58763342 272.31201603 181.89651278 C272.32288097 203.52708405 272.3207341 225.15763971 272.31463119 246.78821185 C272.30946356 266.54981922 272.32071528 286.31137727 272.33972941 306.07297489 C272.35913042 326.39339268 272.3673598 346.71378716 272.36360615 367.03421426 C272.36169747 378.4308435 272.36414915 389.82743077 272.37832069 401.22405243 C272.39026436 410.92676187 272.39160601 420.62940352 272.37953053 430.33211395 C272.37366264 435.27613579 272.37248418 440.22003382 272.38453293 445.16404724 C272.39546234 449.70174636 272.39220547 454.23921934 272.37827124 458.77690819 C272.37564358 460.40667797 272.3779291 462.03646589 272.38600711 463.66621777 C272.47923882 483.902135 269.68817545 502.95222078 258 520 C257.58492187 520.61230469 257.16984375 521.22460938 256.7421875 521.85546875 C245.07449612 537.12128052 225.01930709 542.42581327 207 545 C138.69 545 70.38 545 0 545 C0 365.15 0 185.3 0 0 Z M81 63 C81 201.6 81 340.2 81 483 C135.86644711 488.90639685 135.86644711 488.90639685 187 479 C188.29451936 477.31796964 188.29451936 477.31796964 189.1875 475.3125 C189.51105469 474.66925781 189.83460938 474.02601563 190.16796875 473.36328125 C192.0055354 468.14390179 192.12528149 462.68576995 192.12863445 457.20076275 C192.13126401 456.22570321 192.13126401 456.22570321 192.13394669 455.2309455 C192.13858336 453.06171279 192.13614724 450.8925478 192.13371277 448.72331238 C192.13558191 447.14872362 192.13788303 445.57413534 192.14057809 443.99954778 C192.14668964 439.67926286 192.14656326 435.3589973 192.14538372 431.03870904 C192.14517955 426.3766992 192.1507 421.71469555 192.15544128 417.0526886 C192.16374476 407.92154743 192.16649599 398.79041273 192.16705366 389.6592681 C192.16752895 382.23675044 192.16958432 374.8142349 192.17275429 367.39171791 C192.18155988 346.34479465 192.18617379 325.29787649 192.18542381 304.25095137 C192.18536388 302.54928049 192.18536388 302.54928049 192.18530273 300.81323242 C192.18524141 299.10948258 192.18524141 299.10948258 192.18517885 297.37131355 C192.18477237 278.96183809 192.19434283 260.55238308 192.2084411 242.14291354 C192.22280485 223.23753473 192.22971129 204.33216589 192.22884732 185.42678148 C192.22851536 174.81390762 192.23126207 164.2010552 192.24202538 153.58818626 C192.25113033 144.55263504 192.25330564 135.51711497 192.24651595 126.48156115 C192.24325079 121.87277039 192.24319397 117.26403943 192.2518692 112.65525436 C192.25973518 108.43292551 192.25830175 104.21070385 192.24958507 99.98837761 C192.24805031 98.46419242 192.24986534 96.93999923 192.25544515 95.41582348 C192.77190682 81.35876531 192.77190682 81.35876531 187.9375 68.5625 C161.03958779 45.09836382 116.69402426 63 81 63 Z " fill="#FEFDFE" transform="translate(1398,48)"/>
<path d="M0 0 C1.71183472 -0.00744736 1.71183472 -0.00744736 3.45825195 -0.01504517 C7.21387347 -0.02958411 10.96945268 -0.03645657 14.72509766 -0.04199219 C16.01703663 -0.04481956 17.3089756 -0.04764694 18.64006424 -0.05056 C24.77980418 -0.06398498 30.9195255 -0.07388679 37.05927885 -0.07776189 C44.08862659 -0.08222564 51.11777825 -0.09970529 58.14706647 -0.12876248 C63.61756719 -0.15057125 69.08801355 -0.16047639 74.55855715 -0.16180301 C77.8080803 -0.16283819 81.05737974 -0.16997526 84.30686569 -0.18662262 C109.81574375 -0.30793276 138.3918849 0.44588544 158.29150391 18.99707031 C176.96011615 39.47709246 178.4267536 64.47211295 178.39787292 90.82646179 C178.39974538 92.46667448 178.40204779 94.10688672 178.40473825 95.74709827 C178.41080896 100.21661724 178.41072828 104.68611738 178.40954387 109.15563953 C178.40933866 113.99084244 178.41487002 118.82603949 178.41960144 123.66123962 C178.42788237 133.11996665 178.43065511 142.57868744 178.43121382 152.03741779 C178.43169016 159.7309531 178.43375079 167.42448635 178.43691444 175.11802101 C178.44571375 196.96339668 178.45033491 218.80876745 178.44958397 240.65414491 C178.44952404 242.41802018 178.44952404 242.41802018 178.44946289 244.2175293 C178.44942201 245.39489306 178.44938113 246.57225682 178.44933901 247.78529827 C178.44893266 266.86076706 178.45850126 285.93621611 178.47260126 305.01167919 C178.48698759 324.63036085 178.49387021 344.24903289 178.49300748 363.86771995 C178.49267631 374.86922116 178.49538837 385.87070166 178.50618553 396.8721981 C178.51532024 406.23926403 178.51744145 415.60629985 178.51067611 424.97336831 C178.50742596 429.74534341 178.50729938 434.51726084 178.51602936 439.28923035 C178.52396233 443.67088568 178.52239461 448.05243828 178.51374523 452.43409131 C178.51222505 454.00600633 178.51396926 455.57792929 178.5196053 457.14983495 C178.54778433 465.57777662 178.22319956 473.8818551 177.36198902 482.26974201 C177.28290276 483.04585898 177.2038165 483.82197594 177.12233369 484.62161161 C175.11194065 502.56925281 167.87194065 518.40015641 153.95166016 530.18066406 C143.23410575 538.0786293 132.23325545 541.78726532 119.26416016 544.16113281 C118.31070395 544.33749645 117.35724773 544.51386009 116.37489891 544.69556808 C113.43413036 545.13569444 110.68503344 545.29209883 107.71499634 545.30157471 C106.63603088 545.30728485 105.55706543 545.312995 104.44540405 545.31887817 C103.27651642 545.31999603 102.10762878 545.32111389 100.90332031 545.32226562 C99.66018066 545.32723053 98.41704102 545.33219543 97.13623047 545.33731079 C93.73477779 545.34938894 90.33338636 545.35687066 86.93191957 545.36132145 C84.79936114 545.36426314 82.66680794 545.36837016 80.53425217 545.37282562 C73.84081856 545.38649263 67.14739711 545.39616077 60.45395052 545.40002751 C52.7680041 545.40449362 45.08223681 545.42197713 37.39634478 545.45102811 C31.43083903 545.47278048 25.46538314 545.48273911 19.49983823 545.48406863 C15.94912836 545.48510788 12.39858701 545.49082364 8.84791946 545.50888824 C-17.86235809 545.63700604 -43.81605142 544.31279016 -64.22802734 524.86035156 C-81.90734621 505.83167658 -82.89640109 480.16513829 -82.86955261 455.61605835 C-82.87142458 453.97670872 -82.8737268 452.33735953 -82.87641793 450.69801104 C-82.88249473 446.22623272 -82.88240724 441.75447321 -82.88122356 437.28269172 C-82.8810185 432.44678956 -82.88654828 427.61089328 -82.89128113 422.7749939 C-82.89956562 413.31278765 -82.90233497 403.85058764 -82.90289351 394.38837807 C-82.90336972 386.69195843 -82.9054297 378.99554084 -82.90859413 371.29912186 C-82.91739473 349.44783804 -82.92201444 327.59655912 -82.92126366 305.74527352 C-82.9212237 304.56879126 -82.92118375 303.39230901 -82.92114258 302.18017578 C-82.9211017 301.00224652 -82.92106082 299.82431726 -82.9210187 298.61069317 C-82.9206124 279.52869427 -82.93017928 260.44671513 -82.94428094 241.36472194 C-82.95866738 221.74155189 -82.96554988 202.11839146 -82.96468717 182.49521601 C-82.96435598 171.49034644 -82.96706871 160.48549758 -82.97786522 149.48063278 C-82.98700011 140.10988284 -82.98912102 130.73916299 -82.9823558 121.36841051 C-82.97910562 116.59441711 -82.97897915 111.82048134 -82.98770905 107.04649353 C-82.99564199 102.66294789 -82.99407431 98.27950494 -82.98542491 93.8959616 C-82.98390472 92.32334374 -82.98564902 90.75071795 -82.99128499 89.17810945 C-83.01946843 80.74496517 -82.69376228 72.43715676 -81.82976246 64.04429054 C-81.71034755 62.87858198 -81.71034755 62.87858198 -81.58852021 61.68932375 C-79.69086018 44.78062118 -73.1917828 27.73966531 -59.75537109 16.71582031 C-42.25683293 3.68290272 -21.34680937 0.02251452 0 0 Z M2.26416016 69.16113281 C-1.19896538 73.93785769 -1.86116076 77.82291184 -1.86726761 83.63273239 C-1.86932024 84.29593923 -1.87137288 84.95914608 -1.87348771 85.64245009 C-1.87917403 87.88052795 -1.87769846 90.11854458 -1.87628174 92.35662842 C-1.87886444 93.9711512 -1.88187733 95.58567334 -1.88528514 97.2001946 C-1.89336956 101.64932239 -1.89514551 106.09843406 -1.89588261 110.54756832 C-1.89773066 115.34115471 -1.90527674 120.13473267 -1.91201782 124.92831421 C-1.92561196 135.41587426 -1.93162756 145.90343049 -1.93602848 156.39099789 C-1.9387891 162.93684661 -1.94302613 169.48269385 -1.94753265 176.02854156 C-1.95972678 194.14442731 -1.97002578 212.26031187 -1.97340775 230.37620163 C-1.97362731 231.53613894 -1.97384688 232.69607626 -1.9740731 233.89116319 C-1.97429137 235.05391028 -1.97450965 236.21665738 -1.97473454 237.41463923 C-1.97517801 239.7708923 -1.97562458 242.12714537 -1.97607422 244.48339844 C-1.97629565 245.65218675 -1.97651708 246.82097506 -1.97674522 248.0251812 C-1.98069391 266.96720181 -1.99814947 285.90918396 -2.02143374 304.8511897 C-2.04513462 324.28866332 -2.05760902 343.72611763 -2.05877566 363.16360593 C-2.05969314 374.08106406 -2.06546372 384.99847209 -2.08359528 395.91591644 C-2.09897922 405.21186969 -2.10412682 414.50775737 -2.09585717 423.80372092 C-2.0919446 428.54783263 -2.09290982 433.29181221 -2.10691452 438.03590775 C-2.11961705 442.37855755 -2.11848811 446.72097545 -2.10632381 451.06362477 C-2.10436047 452.63498388 -2.10747456 454.20635922 -2.11616817 455.77769551 C-2.12724029 457.91413461 -2.11978724 460.0497523 -2.10777664 462.18616867 C-2.10837373 463.37268737 -2.10897082 464.55920606 -2.109586 465.78167987 C-1.52067068 471.10671552 -0.12167915 474.99086851 4.07666016 478.53613281 C9.29851542 481.19825511 14.36383403 481.28782863 20.15234375 481.30639648 C20.81336594 481.3097551 21.47438812 481.31311371 22.15544128 481.3165741 C24.32451292 481.32601504 26.4935068 481.32802369 28.66259766 481.32910156 C30.18185456 481.33231876 31.70111116 481.33568317 33.22036743 481.33918762 C36.39936033 481.34516164 39.57832611 481.34702929 42.75732422 481.34643555 C46.81446624 481.34633399 50.87143302 481.35998738 54.92853355 481.37720776 C58.06510199 481.38837015 61.20162861 481.39035346 64.33821487 481.38982582 C65.83321359 481.3909995 67.32821362 481.39538663 68.8231926 481.40315819 C81.37883463 481.6394096 81.37883463 481.6394096 93.07666016 477.59863281 C99.73845872 470.17548584 98.68930079 459.80734083 98.64511108 450.44065857 C98.64857098 448.84229163 98.65333777 447.24392707 98.65929282 445.64556748 C98.67178678 441.26887208 98.66563976 436.89237357 98.65633416 432.51567757 C98.6495375 427.78965381 98.66002793 423.06366356 98.66827393 418.33764648 C98.68160653 409.08577401 98.6787357 399.83397458 98.670036 390.58209925 C98.66325843 383.06282979 98.66234306 375.5435808 98.66560745 368.02430916 C98.666297 366.41850575 98.666297 366.41850575 98.66700048 364.78026186 C98.66795966 362.60544251 98.6689323 360.43062317 98.66991825 358.25580383 C98.67847066 337.86785314 98.66864014 317.47994293 98.65251715 297.09199888 C98.6391122 279.59947964 98.64144383 262.10702012 98.65527344 244.61450195 C98.67132857 224.29751177 98.67764872 203.98055705 98.66843665 183.6635614 C98.667481 181.49708784 98.66653789 179.33061427 98.66560745 177.1641407 C98.66514463 176.09821061 98.6646818 175.03228053 98.66420495 173.93404953 C98.661615 166.42359371 98.66598612 158.91316039 98.67304611 151.40270805 C98.68146047 142.25038198 98.67918222 133.09813309 98.66320388 123.94581585 C98.65532063 119.27647961 98.65223057 114.60727207 98.66215134 109.93793678 C98.67109743 105.66269344 98.66616679 101.38769796 98.65021868 97.11247707 C98.64687055 95.56685603 98.6485657 94.02121401 98.65584604 92.47560649 C99.01486747 79.62400747 99.01486747 79.62400747 92.95166016 68.78613281 C83.79059678 63.24688519 72.52538924 64.00398497 62.15087891 63.99316406 C60.45376518 63.98817146 60.45376518 63.98817146 58.72236633 63.983078 C56.34152632 63.9780423 53.96067932 63.97566863 51.57983398 63.97583008 C47.97253586 63.97364546 44.3655449 63.95545846 40.75830078 63.93652344 C38.43082785 63.93358829 36.10335349 63.93160431 33.77587891 63.93066406 C32.18461433 63.91988579 32.18461433 63.91988579 30.561203 63.90888977 C15.70435345 63.82617426 15.70435345 63.82617426 2.26416016 69.16113281 Z " fill="#FEFDFE" transform="translate(1132.73583984375,47.8388671875)"/>
<path d="M0 0 C1.03554016 -0.0049649 2.07108032 -0.00992981 3.13800049 -0.01504517 C6.54130741 -0.02956828 9.94456766 -0.03645375 13.34790039 -0.04199219 C14.51972933 -0.04481956 15.69155827 -0.04764694 16.89889717 -0.05056 C23.10528918 -0.06551583 29.31165817 -0.07476697 35.51806641 -0.07910156 C41.88230388 -0.08456825 48.24632548 -0.10856876 54.61049557 -0.13707352 C59.54462773 -0.1558362 64.47870942 -0.16091279 69.41287422 -0.16243744 C71.75647722 -0.16543588 74.10007995 -0.17336748 76.44364738 -0.18662262 C101.98546183 -0.32072915 128.45587893 1.31324886 147.97290039 19.80957031 C162.08109276 34.32774434 167.45577013 52.59181214 167.37158203 72.5847168 C167.37172806 73.50257462 167.37187408 74.42043243 167.37202454 75.36610413 C167.37133157 78.3798362 167.36356815 81.39350537 167.35571289 84.40722656 C167.35384652 86.50472479 167.35242365 88.60222346 167.35142517 90.69972229 C167.34761724 96.20536515 167.33780173 101.71098139 167.32672119 107.21661377 C167.3146658 113.83048706 167.31009662 120.44436928 167.30426788 127.05825043 C167.29458902 137.09256303 167.27542039 147.12681731 167.25805664 157.16113281 C140.85805664 157.16113281 114.45805664 157.16113281 87.25805664 157.16113281 C86.94555664 119.22363281 86.94555664 119.22363281 86.87011719 107.2902832 C86.83350862 103.72848658 86.83350862 103.72848658 86.79304504 100.16673279 C86.77700433 98.59300699 86.76664282 97.01921652 86.76094055 95.44541931 C86.8447066 82.973388 86.8447066 82.973388 83.25805664 71.16113281 C73.43835554 62.89319735 57.81173824 65.00053919 45.79711914 65.03076172 C43.26320412 65.03612192 40.7294663 65.03078806 38.19555664 65.02441406 C20.8991611 64.1924082 20.8991611 64.1924082 5.25805664 70.16113281 C-3.80859979 80.42435791 -0.02993845 103.25748736 -0.00756836 115.94238281 C-0.00801552 118.64652654 -0.01085876 121.35066708 -0.0133667 124.05480957 C-0.01698626 129.70306383 -0.01226046 135.35126548 -0.00268555 140.99951172 C0.00819512 147.49223375 0.00466811 153.98483008 -0.00633836 160.47754908 C-0.01546897 166.09245188 -0.01666852 171.70731725 -0.01146102 177.32222509 C-0.0083728 180.65809298 -0.00865111 183.99385559 -0.014534 187.32972717 C-1.37136861 209.65997712 -1.37136861 209.65997712 5.25805664 230.16113281 C11.80257521 234.32582645 18.92843336 234.30809769 26.47802734 234.31884766 C27.26943619 234.32392838 28.06084503 234.32900909 28.87623596 234.33424377 C30.58562959 234.34489307 32.29503668 234.35353428 34.00444984 234.36036301 C36.7278248 234.37226251 39.45104889 234.39174727 42.17436218 234.41348267 C49.91485409 234.47469431 57.65533134 234.52883574 65.39599609 234.5625 C70.14399154 234.58369497 74.89171156 234.61919601 79.63954735 234.6632576 C81.43046976 234.67722991 83.2214409 234.68609655 85.01241493 234.68931198 C107.38625401 234.73369575 130.44959025 237.07458111 147.94555664 252.53613281 C148.70868164 253.40238281 149.47180664 254.26863281 150.25805664 255.16113281 C150.87165039 255.77214844 151.48524414 256.38316406 152.11743164 257.01269531 C164.92825727 270.25696993 169.35730061 289.86647405 169.39849854 307.8422699 C169.40146966 308.5721501 169.40444078 309.30203031 169.40750194 310.05402809 C169.41610871 312.47703003 169.41769034 314.89998209 169.41918945 317.32299805 C169.42382346 319.06997277 169.4288489 320.8169465 169.43423462 322.56391907 C169.44730787 327.29584047 169.45379409 332.0277477 169.45824528 336.75968432 C169.46118533 339.72344382 169.46529195 342.68719953 169.46974945 345.65095711 C169.48341347 354.94518815 169.49308445 364.23941043 169.49695134 373.53365082 C169.50142401 384.22210212 169.51893971 394.91042502 169.54795194 405.59883732 C169.56965707 413.88624719 169.57966038 422.17362119 169.58099246 430.46105915 C169.58203455 435.39841574 169.58781364 440.33565146 169.60581207 445.27297783 C169.62244535 449.92617849 169.62437531 454.57916942 169.61567307 459.23238945 C169.61491067 460.92650927 169.61913804 462.62064108 169.62913132 464.3147316 C169.75333825 486.71057777 166.11889667 508.62759929 150.44555664 525.72363281 C139.14023916 536.52411203 125.43818941 541.54279369 110.25805664 544.16113281 C108.75685524 544.4239505 108.75685524 544.4239505 107.22532654 544.69207764 C102.12691113 545.29486953 97.10652548 545.31677185 91.97705078 545.32226562 C90.86056152 545.32723053 89.74407227 545.33219543 88.59375 545.33731079 C84.91023127 545.35188033 81.22675567 545.35872728 77.54321289 545.36425781 C74.9683787 545.37001542 72.39354451 545.37577307 69.81871033 545.38153076 C65.10849282 545.39068781 60.39829236 545.3969928 55.6880675 545.40002751 C48.79789924 545.40449326 41.90793085 545.42197862 35.01782328 545.45102811 C29.01480858 545.47544113 23.01188675 545.48298118 17.00881767 545.48470306 C14.47376864 545.48770949 11.93872004 545.49566913 9.40370369 545.50888824 C-15.03410486 545.62718181 -39.40292451 544.10959149 -58.74194336 527.16113281 C-73.14357421 510.75677517 -78.9504155 491.61150171 -78.85546875 469.89941406 C-78.85561478 469.01067093 -78.8557608 468.1219278 -78.85591125 467.20625305 C-78.85521967 464.29535401 -78.84746287 461.38452055 -78.83959961 458.47363281 C-78.83773275 456.44482457 -78.83631011 454.41601588 -78.83531189 452.38720703 C-78.83150783 447.06734964 -78.82169571 441.74751988 -78.81060791 436.42767334 C-78.79854197 430.03403799 -78.79398149 423.64039337 -78.7881546 417.24674988 C-78.77848272 407.55152502 -78.7593114 397.8563607 -78.74194336 388.16113281 C-52.34194336 388.16113281 -25.94194336 388.16113281 1.25805664 388.16113281 C1.63305664 425.09863281 1.63305664 425.09863281 1.73608398 436.71557617 C1.77604096 440.18422691 1.77604096 440.18422691 1.81851196 443.65284729 C1.83607299 445.18491583 1.84993179 446.71702977 1.86074829 448.24916077 C1.26688847 463.72567451 1.26688847 463.72567451 7.25805664 477.16113281 C14.68579474 480.43329778 22.17918997 480.60193823 30.16821289 480.55957031 C31.37569687 480.56244049 32.58318085 480.56531067 33.82725525 480.56826782 C36.36612419 480.57029894 38.90500912 480.56483618 41.44384766 480.55224609 C45.31261397 480.53616583 49.18033787 480.5521357 53.04907227 480.57128906 C55.52628809 480.56930674 58.00350328 480.56546329 60.48071289 480.55957031 C62.20137718 480.56867935 62.20137718 480.56867935 63.95680237 480.57797241 C71.00865491 480.51669196 78.62294758 480.32719554 84.19555664 475.47363281 C87.87521309 467.46496878 87.54972573 459.26490436 87.53271484 450.6262207 C87.53706794 449.161827 87.54225308 447.69743557 87.54820251 446.23304749 C87.56153869 442.2743396 87.56217727 438.3157275 87.55963922 434.35700154 C87.55856596 431.04449816 87.56346186 427.73201387 87.56824464 424.4195146 C87.57932095 416.60135769 87.57978764 408.78324884 87.57373047 400.96508789 C87.56769 392.91594427 87.58000782 384.86697543 87.60130054 376.81786162 C87.61894645 369.89106641 87.62491324 362.9643267 87.6216628 356.03750986 C87.61985475 351.90748139 87.62243825 347.77757765 87.63637733 343.64756966 C87.64900008 339.76261176 87.64696987 335.8779254 87.63396645 331.99297142 C87.63161086 330.57285595 87.63429863 329.15272109 87.64258957 327.73262787 C87.75316102 314.97113503 87.75316102 314.97113503 82.38305664 303.72363281 C73.21030097 296.97895953 59.41150239 299.00722067 48.58320045 298.96190262 C45.9692696 298.94992816 43.35549069 298.93043202 40.74162292 298.90878296 C33.31705923 298.84778333 25.89251645 298.79331262 18.46777344 298.75976562 C13.90320099 298.73860306 9.3389169 298.7031399 4.77451134 298.65900803 C3.0545056 298.64502669 1.33444898 298.63616693 -0.38561058 298.63295364 C-23.40970658 298.58538514 -44.63455551 294.59462483 -61.99194336 278.34863281 C-79.34702176 260.15548222 -80.89679954 234.60246517 -80.88720703 210.84008789 C-80.89020671 209.33882566 -80.89361108 207.83756419 -80.89738464 206.33630371 C-80.90614703 202.29260921 -80.90855947 198.24893593 -80.90920043 194.20523286 C-80.90991542 191.66893629 -80.91205816 189.13264497 -80.91469765 186.59634972 C-80.92392575 177.71974729 -80.92803577 168.8431598 -80.92724609 159.96655273 C-80.92664615 151.73802582 -80.93718817 143.50956462 -80.95298976 135.28105432 C-80.96613557 128.17826688 -80.97142705 121.07550074 -80.97079068 113.97270125 C-80.97053774 109.74748679 -80.97327497 105.52233084 -80.98396873 101.29712868 C-80.99376911 97.31693843 -80.99364872 93.33686119 -80.9864521 89.35666656 C-80.98542087 87.91088124 -80.98768003 86.46508841 -80.99381256 85.01931572 C-81.08640489 61.64252844 -78.33988907 37.81702589 -61.66772461 19.96191406 C-44.92450482 4.30547527 -22.13926335 0.02581757 0 0 Z " fill="#FEFDFD" transform="translate(2121.741943359375,47.8388671875)"/>
<path d="M0 0 C1.65309425 -0.00744736 1.65309425 -0.00744736 3.33958435 -0.01504517 C6.97078081 -0.02959811 10.60193351 -0.03645946 14.2331543 -0.04199219 C16.10624299 -0.04623325 16.10624299 -0.04623325 18.01717186 -0.05056 C23.95295001 -0.06399039 29.88871498 -0.07388886 35.8245061 -0.07776189 C42.62011482 -0.08222299 49.41552043 -0.09968774 56.2110675 -0.12876248 C62.14091077 -0.15322983 68.07070513 -0.16071818 74.00060081 -0.16243744 C76.49967742 -0.16543678 78.99875374 -0.17337156 81.49779701 -0.18662262 C108.46517185 -0.31934069 135.8473854 1.23244716 156.68237305 20.53613281 C174.3197747 39.90617594 175.21064051 64.43791418 175.0378418 89.12988281 C175.03223441 91.5059787 175.02796973 93.88207809 175.02497864 96.25817871 C175.01361982 102.45918652 174.98423139 108.65997765 174.9508667 114.86090088 C174.91452206 122.32930526 174.90096194 129.79778279 174.88350677 137.26625061 C174.85458755 148.56469457 174.79703766 159.86266474 174.74487305 171.16113281 C148.01487305 171.16113281 121.28487305 171.16113281 93.74487305 171.16113281 C93.70749023 164.55210937 93.67010742 157.94308594 93.6315918 151.13378906 C93.60130104 146.9364978 93.57014588 142.73924838 93.53588867 138.54199219 C93.48164576 131.88600823 93.43053237 125.23010702 93.3984375 118.57397461 C93.37234908 113.2051504 93.33190728 107.83660544 93.28168678 102.46795464 C93.26505554 100.42397992 93.25351803 98.37995694 93.24725914 96.33592415 C93.23757734 93.46364479 93.20946933 90.59207387 93.17724609 87.7199707 C93.17868118 86.8827095 93.18011627 86.0454483 93.18159485 85.18281555 C93.09323863 79.58124405 92.3766772 74.18681133 89.74487305 69.16113281 C84.9762578 65.05394481 79.66930408 64.03708778 73.56445312 64 C72.28915237 63.99039246 71.01385162 63.98078491 69.6999054 63.97088623 C68.30474019 63.96603677 66.90957289 63.9617583 65.5144043 63.95800781 C64.08054097 63.95225229 62.64667764 63.94649461 61.21281433 63.94073486 C58.20420982 63.93023021 55.19563198 63.92438474 52.18701172 63.92089844 C48.3482949 63.91542931 44.50993557 63.89143339 40.67133045 63.86292648 C37.7071788 63.84421531 34.74311157 63.83908992 31.77890587 63.83756256 C30.36483504 63.83455217 28.95076511 63.82657865 27.5367527 63.81337738 C18.6689882 63.73652962 12.25485387 64.2611429 4.36987305 68.41113281 C0.49223091 72.58705511 0.49404519 78.71134811 0.48760414 84.13495445 C0.48409807 84.80386585 0.48059199 85.47277725 0.47697967 86.16195869 C0.46770205 88.39544058 0.47257946 90.62865963 0.47744751 92.8621521 C0.47370942 94.48282795 0.46910727 96.10350199 0.46371686 97.72417319 C0.45149127 102.17182145 0.45174681 106.61939447 0.45410562 111.0670557 C0.45451389 115.86607076 0.44347373 120.66506173 0.43399048 125.46406555 C0.41738247 134.86358275 0.41188104 144.26307486 0.41076572 153.66260551 C0.40981526 161.3025258 0.40570506 168.94243782 0.39936447 176.5823555 C0.38175347 198.24306035 0.37252551 219.9037454 0.37402542 241.56445746 C0.37414529 243.31580785 0.37414529 243.31580785 0.37426758 245.10253906 C0.37439022 246.85602751 0.37439022 246.85602751 0.37451534 248.64493997 C0.37532845 267.59507131 0.35618417 286.5451232 0.32799084 305.49523155 C0.29927033 324.95318582 0.28545006 344.41110132 0.2871784 363.86907732 C0.28784253 374.7932595 0.28233976 385.71735837 0.2608223 396.64152145 C0.2426216 405.94136488 0.23825413 415.24108723 0.25184114 424.54094075 C0.25837607 429.28536343 0.25846897 434.02955374 0.24113464 438.77395439 C0.22542239 443.11908146 0.2282486 447.46379152 0.24570291 451.8089083 C0.24877685 453.3788372 0.24512554 454.94879708 0.23398276 456.51868944 C0.03716588 468.44276599 0.03716588 468.44276599 4.74487305 479.16113281 C14.91529332 485.94141299 31.66427902 483.34737547 43.42456055 483.34643555 C46.47418265 483.34861801 49.52343979 483.36681762 52.57299805 483.38574219 C71.45550085 484.53233619 71.45550085 484.53233619 88.54858398 479.01733398 C93.02813297 473.19182891 93.0456342 466.89965133 93.0637207 459.8293457 C93.07376633 458.92124146 93.08381195 458.01313721 93.09416199 457.07751465 C93.12488469 454.09627882 93.14199872 451.11513236 93.15893555 448.13378906 C93.17765597 446.05870297 93.19723003 443.98362442 93.21762085 441.90855408 C93.26885559 436.46215266 93.30852766 431.01572658 93.34576416 425.56921387 C93.3929145 419.02617909 93.45447519 412.48326583 93.51361084 405.94033051 C93.6017175 396.01398056 93.67155764 386.08765266 93.74487305 376.16113281 C120.47487305 376.16113281 147.20487305 376.16113281 174.74487305 376.16113281 C174.86519947 401.97337989 174.86519947 401.97337989 174.89135742 413.05957031 C174.9092225 420.59511735 174.93025251 428.130554 174.97119141 435.66601562 C175.00402309 441.74795738 175.02177587 447.82978059 175.02950478 453.9118042 C175.03500583 456.22078311 175.04574675 458.52975627 175.06206322 460.83868408 C175.22659493 485.10836287 172.94131779 508.11675401 155.68237305 526.84863281 C139.92916189 541.74887822 118.09702742 546.48269395 97.05419922 546.43579102 C95.8475914 546.44090195 94.64098358 546.44601288 93.39781189 546.45127869 C90.12484424 546.46270225 86.85203572 546.46526355 83.57905364 546.46271539 C80.82859785 546.46163563 78.07816467 546.46655451 75.32771379 546.47132081 C68.82864699 546.48236671 62.32963802 546.48288154 55.83056641 546.47680664 C49.16745523 546.47077333 42.50455556 546.4830728 35.84148043 546.50437671 C30.0830764 546.52209845 24.32473904 546.52797749 18.5663088 546.52473897 C15.14372287 546.52294242 11.72128779 546.5253964 8.29872704 546.53945351 C-15.09043493 546.61562492 -36.60291112 545.45073419 -56.25512695 531.16113281 C-56.8996582 530.7009375 -57.54418945 530.24074219 -58.20825195 529.76660156 C-69.44562544 520.98423985 -75.37330008 507.88505273 -78.50512695 494.34863281 C-78.66851563 493.6505249 -78.8319043 492.95241699 -79.00024414 492.2331543 C-81.62769793 479.87599823 -81.40265456 467.10731612 -81.38883972 454.5337677 C-81.39071219 452.89767981 -81.39301461 451.26159237 -81.39570504 449.62550563 C-81.40177554 445.16738821 -81.40169511 440.70928968 -81.40051067 436.25116909 C-81.40030545 431.42823622 -81.40583686 426.60530923 -81.41056824 421.78237915 C-81.41884904 412.34771559 -81.42162191 402.91305828 -81.42218062 393.47839139 C-81.42265696 385.80440223 -81.42471762 378.13041513 -81.42788124 370.45642662 C-81.43668051 348.66638848 -81.44130171 326.87635524 -81.44055077 305.08631531 C-81.44051081 303.91338546 -81.44047085 302.7404556 -81.44042969 301.53198242 C-81.44038881 300.35760928 -81.44034793 299.18323613 -81.44030581 297.97327592 C-81.43989946 278.94630605 -81.44946805 259.91935598 -81.46356805 240.89239184 C-81.47795452 221.32343072 -81.484837 201.75447925 -81.48397428 182.18551272 C-81.48364311 171.21195716 -81.48635498 160.23842237 -81.49715233 149.2648716 C-81.50628721 139.92159422 -81.50840811 130.57834703 -81.50164291 121.23506711 C-81.49839284 116.47524356 -81.49826587 111.71547781 -81.50699615 106.95565987 C-81.5149295 102.58510699 -81.51336103 98.21465709 -81.50471202 93.84410652 C-81.50319193 92.27622915 -81.50493574 90.70834382 -81.5105721 89.14047585 C-81.5971529 63.31324212 -79.37630798 37.5672321 -60.25512695 18.16113281 C-48.94171383 8.09377743 -33.97043646 3.29616656 -19.25512695 1.16113281 C-18.09507645 0.98898254 -16.93502594 0.81683228 -15.73982239 0.63946533 C-10.49755464 -0.00638281 -5.27564349 0.00574757 0 0 Z " fill="#FEFDFD" transform="translate(803.255126953125,47.8388671875)"/>
<path d="M0 0 C76.56 0 153.12 0 232 0 C232 21.12 232 42.24 232 64 C181.84 64 131.68 64 80 64 C80 119.11 80 174.22 80 231 C121.09265787 230.96038041 121.09265787 230.96038041 162.18530273 230.90991211 C170.11535645 230.90539551 170.11535645 230.90539551 173.82240295 230.90455627 C176.42321136 230.90301611 179.02397203 230.89985892 181.62477112 230.89442444 C185.55380634 230.88632255 189.48282126 230.88609242 193.41186523 230.88647461 C195.16303603 230.88107745 195.16303603 230.88107745 196.94958401 230.87557125 C198.52599966 230.8776375 198.52599966 230.8776375 200.13426208 230.87974548 C201.05513328 230.87882369 201.97600447 230.8779019 202.92478085 230.87695217 C205 231 205 231 206 232 C206.09925773 233.95824698 206.12799414 235.92009897 206.12939453 237.88085938 C206.13254669 239.13886353 206.13569885 240.39686768 206.13894653 241.69299316 C206.13715675 243.07657913 206.1351058 244.46016478 206.1328125 245.84375 C206.13348559 247.25240089 206.13445565 248.66105166 206.13571167 250.06970215 C206.13718842 253.02548323 206.13503483 255.98123414 206.13037109 258.93701172 C206.12467381 262.73374584 206.12795293 266.53040928 206.13394356 270.32714081 C206.13754979 273.23696428 206.1364103 276.14677088 206.13381577 279.05659485 C206.13314667 280.456894 206.13397432 281.85719467 206.13629532 283.25749207 C206.13882283 285.21137464 206.13429033 287.16526255 206.12939453 289.11914062 C206.12859894 290.23309204 206.12780334 291.34704346 206.12698364 292.49475098 C206 295 206 295 205 296 C203.3804366 296.09603022 201.75666917 296.12187855 200.13426208 296.12025452 C199.08331832 296.12163201 198.03237455 296.12300951 196.94958401 296.12442875 C195.78213681 296.12083064 194.61468962 296.11723253 193.41186523 296.11352539 C191.55314962 296.11370619 191.55314962 296.11370619 189.65688419 296.11389065 C186.29427543 296.11326559 182.9317277 296.1083065 179.56912994 296.10128021 C176.41787308 296.09560012 173.26661783 296.0953179 170.11535645 296.09460449 C160.88939959 296.0893498 151.66344935 296.07538875 142.4375 296.0625 C111.5309375 296.0315625 111.5309375 296.0315625 80 296 C80 357.05 80 418.1 80 481 C132.14 481 184.28 481 238 481 C238 502.12 238 523.24 238 545 C159.46 545 80.92 545 0 545 C0 365.15 0 185.3 0 0 Z " fill="#FEFDFE" transform="translate(1755,48)"/>
<path d="M0 0 C1.25908676 0.00222061 2.51817352 0.00444122 3.81541443 0.00672913 C4.50806396 0.0065831 5.2007135 0.00643707 5.91435242 0.00628662 C8.21400537 0.00698577 10.51357828 0.01477823 12.81321716 0.02259827 C14.40362504 0.02446244 15.99403349 0.02588635 17.58444214 0.02688599 C21.77827021 0.03071123 25.97206386 0.04054156 30.1658783 0.05158997 C34.44220006 0.06180395 38.71852736 0.06638358 42.99485779 0.07142639 C51.39135799 0.08216383 59.78783017 0.09924032 68.18431091 0.12025452 C68.87203105 9.30190256 69.34237395 18.41341423 69.35227966 27.62416077 C69.35560806 28.74934616 69.35893646 29.87453156 69.36236572 31.03381348 C69.36738099 33.39408465 69.36977574 35.75436278 69.36961365 38.11463928 C69.37179144 41.65114037 69.38998251 45.18732427 69.40892029 48.72377014 C69.45509281 66.88876852 69.08877473 85.22384931 64.93431091 102.99525452 C64.71815125 103.94666321 64.50199158 104.8980719 64.27928162 105.87831116 C58.32819655 131.02986676 45.32495678 155.80990664 28.18431091 175.12025452 C27.50239685 175.93365295 26.82048279 176.74705139 26.11790466 177.58509827 C11.52341327 194.59856613 -7.48718038 207.91922427 -27.81568909 217.12025452 C-28.78248596 217.5778717 -29.74928284 218.03548889 -30.74537659 218.50697327 C-70.7767856 236.48141612 -116.53653127 235.22885287 -157.07545471 220.18031311 C-197.20618787 204.65575472 -229.11373245 174.44877726 -247.21437073 135.37782288 C-257.12016859 112.84422105 -261.81568909 90.71232852 -261.81568909 66.12025452 C-238.05568909 66.12025452 -214.29568909 66.12025452 -189.81568909 66.12025452 C-189.81568909 70.41025452 -189.81568909 74.70025452 -189.81568909 79.12025452 C-187.27928717 102.2135901 -173.87203509 124.01214686 -156.53443909 138.99525452 C-134.85171531 155.9426708 -109.34723848 162.01498685 -82.29566956 158.82289124 C-57.85906313 154.96229192 -35.78520507 140.59000078 -20.81568909 121.12025452 C-9.75443447 105.09694176 -3.6400417 87.87641129 -3.71803284 68.34315491 C-3.72022324 67.24653534 -3.72022324 67.24653534 -3.72245789 66.12776184 C-3.72623405 64.55692926 -3.7323184 62.9861008 -3.74052429 61.41528511 C-3.75337598 58.93179596 -3.75982473 56.44836066 -3.7646637 53.96484375 C-3.77603555 48.7041229 -3.79531646 43.44344718 -3.81568909 38.18275452 C-3.83927619 32.0609311 -3.85963666 25.93913212 -3.87162781 19.81727409 C-3.8781281 17.36591127 -3.89062856 14.91462475 -3.90333557 12.46328735 C-3.90696517 10.97272306 -3.91031726 9.48215805 -3.91334534 7.99159241 C-3.92120056 6.03256737 -3.92120056 6.03256737 -3.92921448 4.03396606 C-3.77832849 0.16136763 -3.77832849 0.16136763 0 0 Z " fill="#FEFEFE" transform="translate(291.81568908691406,407.87974548339844)"/>
</svg>
