<?xml version="1.0" standalone="no"?>
<!DOCTYPE svg PUBLIC "-//W3C//DTD SVG 20010904//EN"
 "http://www.w3.org/TR/2001/REC-SVG-20010904/DTD/svg10.dtd">
<svg version="1.0" xmlns="http://www.w3.org/2000/svg"
 width="2009.000000pt" height="2009.000000pt" viewBox="0 0 2009.000000 2009.000000"
 preserveAspectRatio="xMidYMid meet">
<metadata>
Created by potrace 1.16, written by Peter Selinger 2001-2019
</metadata>
<g transform="translate(0.000000,2009.000000) scale(0.100000,-0.100000)"
fill="#000000" stroke="none">
<path d="M9455 18515 c-523 -38 -1048 -128 -1571 -270 -375 -102 -834 -265
-1044 -370 -47 -23 -134 -63 -195 -90 -638 -277 -1403 -773 -1965 -1274 -453
-404 -631 -591 -973 -1019 -563 -704 -962 -1405 -1266 -2225 -77 -207 -111
-309 -206 -611 -155 -491 -267 -1144 -306 -1773 -15 -253 -6 -958 15 -1182 55
-576 153 -1096 292 -1546 178 -581 315 -926 564 -1425 458 -917 1038 -1668
1865 -2416 409 -369 971 -766 1470 -1036 544 -296 1152 -541 1740 -701 546
-149 1082 -239 1660 -277 193 -13 827 -13 1015 0 1030 69 1893 283 2845 702
1133 500 2182 1313 2990 2318 369 460 646 891 905 1410 251 502 370 804 575
1460 124 396 228 959 281 1520 22 231 30 926 15 1173 -39 617 -151 1282 -291
1722 -21 66 -61 194 -90 285 -237 752 -602 1496 -1053 2145 -121 174 -212 295
-386 510 -306 381 -500 582 -931 966 -562 501 -1327 997 -1965 1274 -60 27
-148 67 -195 90 -172 86 -585 238 -870 321 -478 138 -880 223 -1305 273 -93
11 -208 25 -255 31 -262 31 -1012 39 -1365 15z m-195 -4366 c0 -10 157 -11
795 -6 504 4 795 2 795 -4 0 -5 17 -7 40 -3 27 4 40 3 40 -5 0 -7 9 -9 25 -5
16 4 25 2 25 -5 0 -7 9 -9 25 -5 14 3 25 2 25 -4 0 -6 9 -8 20 -5 12 3 20 0
20 -7 0 -7 8 -9 20 -5 11 4 20 2 20 -4 0 -6 7 -8 15 -5 8 4 15 2 15 -4 0 -6 9
-8 20 -5 11 3 20 0 20 -6 0 -5 7 -8 15 -5 8 4 15 1 15 -6 0 -6 5 -8 10 -5 6 3
10 2 10 -4 0 -6 7 -8 15 -5 8 4 15 2 15 -3 0 -5 10 -10 22 -10 13 -1 24 -7 26
-13 2 -5 8 -8 13 -4 5 3 9 1 9 -3 0 -5 10 -9 22 -10 11 -1 24 -6 27 -10 3 -4
13 -9 21 -11 8 -2 17 -8 18 -13 2 -5 8 -7 13 -3 5 3 9 0 9 -6 0 -6 5 -8 10 -5
6 3 10 1 10 -5 0 -6 4 -9 8 -6 5 3 18 -3 29 -14 12 -10 24 -16 27 -13 3 4 6 1
6 -6 0 -7 5 -9 10 -6 6 3 10 1 10 -5 0 -6 5 -8 10 -5 6 3 13 -1 16 -9 3 -9 10
-13 15 -10 5 3 12 -2 15 -10 3 -9 10 -13 15 -10 5 3 12 -2 15 -10 3 -9 10 -13
15 -10 5 3 12 -2 15 -10 3 -9 10 -14 15 -11 4 3 16 -6 25 -20 9 -13 20 -23 24
-20 5 3 18 -9 30 -25 12 -17 25 -29 28 -25 9 9 82 -67 75 -78 -3 -6 -1 -7 4
-4 11 7 36 -16 28 -25 -3 -3 10 -17 30 -32 19 -15 33 -31 30 -36 -3 -5 4 -14
15 -20 11 -6 18 -15 15 -20 -3 -5 4 -14 15 -20 11 -6 19 -15 17 -20 -1 -5 7
-16 18 -25 11 -9 13 -14 5 -10 -8 4 -4 -3 10 -14 14 -11 21 -21 16 -21 -6 0
-1 -7 10 -16 10 -8 12 -13 4 -9 -8 4 -6 -1 4 -9 11 -9 16 -16 11 -16 -5 0 0
-7 11 -16 10 -8 12 -13 4 -9 -10 4 -9 2 2 -8 10 -8 15 -17 11 -20 -3 -4 -1 -7
6 -7 7 0 9 -4 6 -10 -3 -5 -1 -10 5 -10 6 0 8 -4 5 -10 -3 -5 -1 -10 5 -10 6
0 8 -4 5 -10 -3 -5 -1 -10 5 -10 6 0 8 -4 5 -10 -3 -5 -1 -10 5 -10 6 0 8 -4
5 -10 -3 -5 -1 -10 5 -10 6 0 8 -4 5 -10 -3 -5 -1 -10 5 -10 6 0 8 -4 5 -10
-3 -5 -1 -10 5 -10 7 0 9 -7 6 -16 -4 -10 -2 -13 6 -8 8 5 9 2 5 -9 -4 -10 -2
-17 4 -17 6 0 8 -7 5 -16 -4 -10 -2 -13 6 -8 8 5 9 2 5 -9 -4 -10 -2 -17 4
-17 6 0 9 -7 5 -15 -3 -8 -1 -15 5 -15 6 0 9 -7 5 -15 -3 -8 -1 -15 5 -15 6 0
9 -7 5 -15 -3 -8 -1 -15 5 -15 6 0 8 -9 4 -20 -4 -12 -2 -20 5 -20 7 0 9 -8 5
-20 -4 -12 -2 -20 5 -20 6 0 8 -10 4 -26 -5 -20 -4 -25 6 -19 9 6 10 0 5 -24
-4 -20 -3 -31 5 -31 7 0 9 -12 4 -36 -5 -28 -4 -35 5 -29 10 5 11 -6 6 -50 -5
-39 -4 -56 3 -51 6 4 10 -41 10 -134 0 -95 -3 -138 -10 -134 -7 5 -8 -8 -4
-40 5 -32 4 -46 -4 -46 -8 0 -9 -10 -5 -30 4 -20 3 -30 -5 -30 -8 0 -10 -9 -6
-25 4 -15 2 -25 -4 -25 -7 0 -9 -8 -5 -20 4 -12 2 -20 -5 -20 -7 0 -9 -8 -5
-20 4 -12 2 -20 -5 -20 -7 0 -9 -8 -5 -20 4 -11 2 -20 -4 -20 -6 0 -8 -7 -5
-15 4 -8 1 -15 -6 -15 -7 0 -10 -7 -6 -15 3 -8 1 -15 -5 -15 -6 0 -9 -7 -5
-15 3 -8 1 -15 -4 -15 -5 0 -7 -7 -4 -15 4 -8 1 -15 -5 -15 -6 0 -8 -7 -4 -17
5 -12 3 -14 -7 -8 -10 6 -12 4 -7 -8 3 -10 2 -17 -3 -17 -5 0 -7 -7 -4 -15 4
-8 1 -15 -6 -15 -6 0 -8 -4 -5 -10 3 -5 1 -10 -5 -10 -6 0 -8 -4 -5 -10 3 -5
1 -10 -5 -10 -6 0 -8 -4 -5 -10 3 -5 1 -10 -5 -10 -6 0 -8 -4 -5 -10 3 -5 1
-10 -5 -10 -6 0 -8 -4 -5 -10 3 -5 1 -10 -5 -10 -6 0 -8 -4 -5 -10 3 -5 1 -10
-5 -10 -6 0 -9 -4 -5 -10 3 -5 -2 -18 -12 -28 -10 -10 -19 -25 -21 -33 -2 -8
-10 -19 -17 -25 -8 -6 -12 -14 -8 -17 3 -4 -2 -9 -11 -13 -9 -3 -13 -10 -10
-15 3 -5 -2 -12 -10 -15 -9 -3 -14 -10 -11 -15 3 -4 -4 -13 -15 -19 -11 -6
-18 -15 -15 -20 3 -5 -4 -14 -15 -20 -11 -6 -18 -15 -15 -20 3 -5 -6 -17 -20
-26 -13 -9 -23 -20 -20 -24 3 -5 -13 -22 -35 -40 -22 -17 -39 -37 -37 -43 1
-7 -3 -11 -10 -10 -7 2 -24 -13 -39 -32 -14 -19 -30 -35 -35 -35 -5 0 -18 -9
-29 -20 -11 -11 -16 -20 -10 -20 5 0 9 -5 7 -12 -1 -7 4 -12 11 -13 7 0 39
-27 70 -61 31 -33 51 -52 43 -42 -29 37 -3 16 69 -58 41 -42 68 -73 60 -69 -8
4 3 -10 25 -30 22 -20 33 -34 25 -30 -8 4 -6 -1 5 -10 11 -9 20 -20 20 -25 0
-5 9 -16 20 -25 11 -9 13 -14 5 -10 -8 4 -4 -3 10 -14 14 -11 22 -21 18 -21
-5 0 1 -9 12 -20 12 -12 18 -25 15 -30 -4 -6 -1 -10 5 -10 6 0 9 -4 6 -9 -3
-5 1 -12 10 -15 9 -4 14 -13 10 -22 -3 -8 -2 -13 3 -10 11 7 33 -43 25 -56 -5
-7 -2 -8 6 -3 10 6 12 4 7 -8 -3 -10 -2 -17 4 -17 6 0 7 -4 4 -10 -3 -5 -1
-10 5 -10 7 0 10 -7 6 -15 -3 -8 -1 -15 5 -15 6 0 7 -4 4 -10 -3 -5 -1 -10 5
-10 6 0 8 -4 5 -10 -3 -5 -1 -10 5 -10 7 0 10 -7 6 -15 -3 -8 -1 -15 4 -15 5
0 6 -7 3 -17 -5 -12 -3 -14 7 -8 10 6 12 4 7 -8 -4 -10 -2 -17 4 -17 6 0 9 -7
5 -15 -3 -8 -1 -15 5 -15 6 0 9 -7 5 -15 -3 -8 -1 -15 5 -15 6 0 8 -9 4 -20
-4 -12 -2 -20 5 -20 7 0 9 -8 5 -21 -5 -16 -4 -19 5 -14 10 6 11 1 6 -19 -4
-15 -2 -26 4 -26 6 0 8 -11 4 -26 -5 -20 -4 -25 6 -19 9 6 10 0 5 -24 -4 -21
-3 -31 5 -31 8 0 10 -12 5 -40 -5 -28 -3 -40 5 -40 9 0 10 -99 5 -430 -6 -342
-5 -430 5 -430 9 0 11 -9 7 -30 -4 -18 -2 -30 4 -30 6 0 8 -9 4 -20 -4 -11 -2
-20 4 -20 6 0 8 -7 5 -15 -4 -8 -1 -15 6 -15 6 0 8 -4 5 -10 -3 -5 -1 -10 5
-10 6 0 8 -4 5 -10 -3 -5 -1 -10 5 -10 6 0 8 -4 5 -10 -3 -5 -1 -10 5 -10 6 0
8 -4 5 -10 -3 -5 -1 -10 5 -10 6 0 9 -4 5 -9 -3 -6 4 -15 15 -21 11 -6 19 -14
17 -18 -3 -9 74 -87 86 -87 5 0 14 -8 21 -17 7 -10 18 -18 25 -18 6 0 11 -5
11 -11 0 -5 5 -7 10 -4 6 3 10 1 10 -4 0 -6 7 -11 15 -11 8 0 15 -5 15 -11 0
-5 5 -7 10 -4 6 3 10 1 10 -6 0 -7 3 -9 6 -6 4 3 16 1 28 -5 11 -7 26 -13 31
-14 47 -12 78 -16 130 -17 l60 -2 3 -64 c2 -44 -1 -67 -10 -73 -7 -5 -280 -8
-643 -6 l-630 3 -1 615 c0 522 -4 689 -17 825 -1 11 -6 26 -10 33 -5 6 -5 17
-2 22 4 6 1 17 -5 25 -7 8 -9 15 -5 15 4 0 2 7 -5 15 -6 8 -9 19 -6 24 4 5 2
12 -4 16 -6 4 -8 11 -5 16 4 5 1 9 -5 9 -6 0 -9 4 -5 9 3 5 1 12 -5 16 -6 4
-8 11 -5 16 4 5 1 9 -5 9 -6 0 -8 5 -5 10 3 6 1 10 -4 10 -6 0 -10 3 -9 8 4
14 -13 52 -23 52 -6 0 -7 5 -4 10 3 6 1 10 -5 10 -6 0 -8 5 -5 10 3 6 -1 13
-9 16 -9 3 -14 10 -11 14 3 4 -2 11 -11 14 -8 3 -13 10 -10 15 3 5 -1 11 -9
15 -8 3 -15 11 -15 18 0 7 -9 19 -20 26 -11 7 -20 17 -20 23 0 15 -102 119
-112 113 -4 -3 -13 4 -20 16 -7 11 -19 20 -26 20 -7 0 -15 7 -18 15 -4 8 -10
12 -15 9 -5 -3 -12 2 -15 10 -3 9 -10 13 -15 10 -5 -3 -9 0 -9 6 0 6 -4 8 -10
5 -5 -3 -10 -1 -10 4 0 6 -7 11 -15 11 -9 0 -33 11 -54 24 -21 14 -42 22 -45
19 -3 -4 -6 -1 -6 5 0 7 -3 11 -7 11 -5 -1 -10 0 -13 1 -3 1 -13 3 -23 5 -10
2 -26 7 -35 11 -9 4 -20 8 -24 9 -5 2 -9 3 -10 5 -2 1 -12 3 -23 5 -11 2 -33
6 -50 9 -29 5 -1746 8 -1751 3 -2 -1 -4 -239 -6 -527 -3 -481 -4 -527 -21
-551 -9 -14 -14 -29 -10 -32 3 -4 1 -7 -6 -7 -7 0 -10 -4 -6 -9 3 -6 -3 -14
-12 -20 -10 -6 -14 -11 -8 -11 5 0 -8 -18 -30 -40 -21 -21 -42 -37 -46 -35 -4
3 -10 -2 -13 -11 -3 -8 -10 -12 -16 -9 -5 3 -10 1 -10 -5 0 -6 -4 -8 -10 -5
-5 3 -10 2 -10 -4 0 -6 -7 -8 -15 -5 -8 4 -15 1 -15 -6 0 -6 -4 -9 -9 -5 -5 3
-13 0 -16 -6 -4 -5 -14 -8 -22 -5 -9 4 -22 1 -29 -5 -14 -11 -138 -3 -151 11
-2 1 -7 4 -13 5 -5 1 -13 4 -17 5 -5 1 -11 2 -15 1 -5 0 -8 4 -8 10 0 5 -4 8
-9 5 -5 -3 -12 1 -15 9 -3 8 -9 14 -13 13 -11 -2 -99 84 -96 94 2 4 -2 8 -7 8
-6 0 -10 7 -10 15 0 8 -5 15 -11 15 -5 0 -8 4 -5 9 4 5 2 11 -4 13 -8 2 -18
34 -19 58 0 3 -1 507 -3 1120 l-3 1115 355 0 355 0 5 -245 5 -245 293 -3 292
-2 0 347 0 348 -245 -3 c-166 -2 -245 1 -245 8 0 7 -271 10 -882 8 l-883 -3 0
355 0 355 1765 0 1765 0 0 -72 c0 -72 -9 -99 -25 -73 -7 11 -11 11 -24 1 -8
-7 -28 -11 -43 -10 -15 2 -34 0 -41 -4 -6 -5 -16 -6 -21 -3 -5 4 -11 1 -13 -4
-2 -6 -13 -12 -26 -13 -12 0 -22 -5 -22 -10 0 -4 -4 -5 -10 -2 -5 3 -10 1 -10
-5 0 -6 -4 -8 -10 -5 -5 3 -10 1 -10 -5 0 -6 -4 -8 -10 -5 -5 3 -10 1 -10 -4
0 -6 -7 -11 -15 -11 -8 0 -15 -5 -15 -11 0 -5 -4 -8 -9 -5 -5 3 -12 -1 -15
-10 -3 -8 -10 -13 -15 -10 -5 3 -16 -5 -25 -19 -9 -14 -22 -24 -29 -22 -6 1
-11 -4 -9 -11 1 -8 -1 -11 -6 -8 -5 3 -20 -6 -33 -21 -13 -14 -17 -23 -9 -19
8 4 2 -5 -15 -19 -16 -15 -23 -24 -15 -20 10 4 9 1 -2 -8 -10 -8 -15 -17 -11
-20 3 -4 -2 -9 -11 -13 -9 -3 -13 -10 -10 -15 3 -5 0 -9 -6 -9 -6 0 -9 -4 -5
-9 3 -5 1 -12 -5 -16 -6 -4 -8 -11 -5 -16 4 -5 1 -9 -5 -9 -7 0 -10 -7 -6 -15
3 -8 1 -15 -5 -15 -6 0 -8 -9 -4 -20 4 -11 2 -20 -4 -20 -7 0 -10 -134 -8
-417 l2 -418 165 4 c233 6 272 10 343 40 16 6 32 9 37 6 5 -3 10 0 12 5 2 6
13 12 26 13 12 0 22 5 22 10 0 4 5 5 10 2 6 -3 10 -1 10 5 0 6 4 9 9 5 5 -3
17 2 25 11 9 8 16 13 16 10 0 -3 9 3 20 14 12 12 25 18 30 15 6 -4 10 -1 10 4
0 6 7 11 15 11 8 0 15 5 15 10 0 6 5 10 11 10 7 0 18 8 25 18 7 9 17 17 22 17
5 0 22 15 37 33 15 18 30 30 33 27 8 -7 52 36 47 46 -3 4 10 20 27 35 18 15
32 31 30 36 -1 5 5 11 13 14 8 4 15 13 15 20 0 8 7 17 15 20 8 4 12 10 9 15
-3 5 0 9 6 9 6 0 8 5 5 10 -3 6 -1 10 4 10 6 0 11 7 11 15 0 8 5 15 11 15 5 0
7 5 4 10 -3 6 -1 10 5 10 6 0 8 5 5 10 -3 6 -1 10 5 10 6 0 9 4 5 9 -3 5 -1
12 5 16 6 4 8 11 5 16 -4 5 -1 9 6 9 7 0 9 3 6 7 -4 3 -2 12 4 20 6 7 8 13 4
13 -4 0 -2 7 5 15 7 8 9 15 5 15 -4 0 -2 7 5 15 7 8 9 15 5 15 -4 0 -2 7 5 15
6 8 9 19 5 25 -3 5 -3 16 2 23 16 25 22 203 9 282 -3 22 -8 54 -10 70 -2 17
-7 41 -11 55 -3 14 -7 30 -9 37 -1 7 -5 15 -8 19 -4 3 -4 12 -1 20 3 8 0 14
-6 14 -6 0 -10 3 -10 8 1 4 0 10 -1 15 -1 4 -3 10 -4 15 -1 4 -7 17 -14 28 -6
12 -8 24 -5 28 3 3 1 6 -6 6 -7 0 -9 5 -6 10 3 6 1 10 -5 10 -6 0 -8 5 -5 10
3 6 1 10 -5 10 -6 0 -8 5 -5 10 3 6 1 10 -4 10 -6 0 -11 7 -11 15 0 8 -5 15
-11 15 -5 0 -7 5 -4 10 3 6 -1 13 -9 16 -9 3 -16 12 -16 19 0 7 -7 15 -15 19
-8 3 -14 9 -13 13 4 11 -157 173 -171 173 -7 0 -14 7 -17 15 -4 8 -12 15 -20
15 -8 0 -14 5 -14 10 0 6 -7 10 -15 10 -8 0 -15 4 -15 9 0 4 -20 16 -45 25
-25 10 -45 22 -45 27 0 6 -4 7 -10 4 -5 -3 -10 -1 -10 6 0 7 -3 9 -6 6 -4 -3
-16 -1 -28 5 -11 7 -24 13 -28 14 -5 1 -10 3 -13 4 -3 1 -9 4 -15 5 -5 1 -12
4 -15 5 -3 1 -9 4 -15 5 -5 1 -11 3 -12 5 -4 2 -24 6 -63 14 -50 8 -1014 19
-1552 17 l-173 -1 0 -165 0 -165 -357 0 -358 0 -1 182 c-2 199 -6 267 -18 286
-4 7 -5 19 -2 27 3 8 1 15 -5 15 -6 0 -9 7 -5 15 3 8 0 15 -6 15 -6 0 -8 3 -5
6 4 4 -2 19 -13 34 -11 15 -17 30 -13 34 3 3 1 6 -6 6 -7 0 -10 4 -6 9 3 6 -4
15 -15 21 -11 6 -19 14 -18 18 3 10 -105 117 -115 114 -4 -1 -10 5 -13 13 -3
8 -10 12 -15 9 -5 -3 -12 2 -15 10 -3 9 -10 13 -15 10 -5 -3 -9 0 -9 6 0 6 -4
8 -10 5 -5 -3 -10 -1 -10 5 0 6 -4 8 -10 5 -5 -3 -10 -1 -10 5 0 6 -4 9 -9 5
-5 -3 -12 -1 -16 5 -4 6 -10 8 -15 5 -5 -3 -11 -1 -15 4 -3 6 -12 8 -19 5 -8
-3 -17 -1 -20 4 -3 6 -15 8 -25 5 -10 -3 -22 0 -25 6 -5 7 -22 9 -47 5 -27 -5
-39 -3 -39 5 0 7 -4 9 -10 6 -6 -4 -10 21 -10 67 l0 73 710 4 c568 2 710 1
710 -10z m1179 -3732 c10 -278 3 -671 -13 -695 -4 -7 -5 -25 -1 -41 4 -17 2
-32 -5 -36 -7 -4 -9 -19 -5 -36 4 -19 3 -29 -5 -29 -8 0 -10 -9 -6 -25 4 -15
2 -25 -4 -25 -7 0 -9 -8 -5 -20 4 -12 2 -20 -5 -20 -7 0 -9 -8 -5 -20 4 -12 2
-20 -5 -20 -7 0 -10 -7 -7 -15 4 -8 2 -17 -3 -20 -5 -3 -7 -12 -3 -20 3 -8 0
-15 -7 -15 -7 0 -10 -7 -6 -15 3 -8 1 -15 -4 -15 -5 0 -7 -7 -4 -15 4 -8 1
-15 -6 -15 -6 0 -8 -4 -5 -10 3 -5 1 -10 -5 -10 -7 0 -10 -7 -6 -15 3 -8 1
-15 -5 -15 -6 0 -7 -4 -4 -10 3 -5 2 -10 -4 -10 -6 0 -8 -7 -5 -15 4 -8 1 -15
-6 -15 -6 0 -8 -4 -5 -10 3 -5 1 -10 -5 -10 -6 0 -8 -4 -5 -10 3 -5 1 -10 -6
-10 -7 0 -9 -3 -6 -7 4 -3 -1 -12 -11 -20 -11 -10 -12 -12 -2 -8 10 4 9 2 -2
-8 -10 -8 -15 -17 -11 -20 3 -4 1 -7 -6 -7 -7 0 -9 -4 -6 -10 3 -5 1 -10 -6
-10 -7 0 -9 -3 -6 -7 4 -3 -1 -12 -11 -20 -11 -10 -12 -12 -2 -8 10 4 9 2 -2
-8 -10 -8 -15 -17 -11 -20 3 -4 1 -7 -6 -7 -7 0 -9 -5 -6 -10 3 -6 -1 -13 -9
-16 -9 -3 -14 -10 -11 -14 3 -4 -2 -11 -11 -14 -8 -3 -12 -10 -9 -16 3 -5 1
-10 -4 -10 -6 0 -10 -4 -8 -9 1 -5 -7 -17 -18 -26 -11 -9 -13 -14 -5 -10 8 4
2 -6 -15 -20 -16 -15 -23 -24 -15 -20 8 4 -3 -10 -25 -30 -22 -21 -31 -31 -20
-24 11 7 -18 -26 -64 -74 -47 -47 -88 -84 -92 -81 -4 2 -17 -9 -29 -26 -12
-17 -25 -28 -30 -25 -5 3 -14 -4 -20 -15 -6 -11 -15 -18 -20 -15 -5 3 -14 -4
-20 -15 -6 -11 -17 -20 -24 -20 -8 0 -17 -7 -20 -16 -3 -8 -10 -13 -15 -10 -5
3 -12 -1 -15 -10 -3 -8 -10 -13 -15 -10 -5 3 -12 -1 -15 -10 -3 -8 -10 -12
-16 -9 -5 3 -10 1 -10 -5 0 -6 -4 -9 -9 -6 -5 3 -12 -1 -15 -10 -3 -8 -10 -12
-16 -9 -5 3 -10 1 -10 -5 0 -6 -4 -8 -10 -5 -5 3 -10 1 -10 -5 0 -6 -4 -8 -10
-5 -5 3 -10 1 -10 -5 0 -6 -4 -8 -10 -5 -5 3 -10 1 -10 -5 0 -6 -4 -8 -10 -5
-5 3 -10 1 -10 -5 0 -6 -4 -8 -10 -5 -5 3 -10 1 -10 -5 0 -6 -4 -8 -10 -5 -5
3 -10 1 -10 -5 0 -6 -4 -8 -10 -5 -5 3 -10 1 -10 -5 0 -7 -7 -10 -15 -6 -8 3
-15 1 -15 -5 0 -6 -4 -7 -10 -4 -5 3 -10 1 -10 -5 0 -7 -6 -10 -14 -7 -8 3
-16 2 -18 -3 -2 -5 -13 -11 -25 -13 -12 -2 -25 -6 -29 -9 -3 -4 -12 -4 -20 -1
-8 3 -14 0 -14 -7 0 -7 -7 -10 -15 -6 -8 3 -15 1 -15 -5 0 -6 -9 -8 -20 -4
-12 4 -20 2 -20 -5 0 -7 -8 -9 -20 -5 -12 4 -20 2 -20 -5 0 -8 -9 -10 -25 -6
-16 4 -25 2 -25 -5 0 -7 -9 -9 -25 -5 -16 4 -25 2 -25 -5 0 -7 -11 -9 -30 -6
-16 4 -32 2 -36 -4 -4 -7 -25 -8 -55 -4 -33 5 -49 3 -49 -4 0 -7 -37 -11 -110
-11 -69 0 -110 4 -110 10 0 7 -18 8 -50 4 -34 -4 -50 -3 -50 4 0 7 -11 9 -30
6 -19 -4 -30 -2 -30 5 0 7 -9 9 -25 5 -16 -4 -25 -2 -25 5 0 7 -9 9 -25 5 -15
-4 -25 -2 -25 5 0 6 -6 8 -14 5 -8 -3 -17 -1 -20 5 -4 6 -13 8 -21 4 -8 -3
-15 -1 -15 5 0 6 -9 8 -20 5 -12 -3 -20 0 -20 6 0 7 -4 10 -9 6 -5 -3 -12 -1
-16 4 -3 6 -12 8 -20 4 -8 -3 -15 -1 -15 4 0 5 -10 10 -22 10 -13 1 -24 7 -26
12 -2 5 -10 7 -18 4 -8 -3 -14 0 -14 7 0 6 -4 8 -10 5 -5 -3 -10 -1 -10 5 0 6
-4 8 -10 5 -5 -3 -10 -2 -10 4 0 6 -6 8 -14 5 -7 -3 -20 1 -27 8 -8 7 -21 14
-29 16 -8 2 -18 9 -22 15 -4 7 -8 8 -8 4 0 -11 -60 25 -60 36 0 4 -4 5 -10 2
-5 -3 -10 -1 -10 5 0 6 -4 9 -8 6 -5 -3 -19 4 -30 15 -12 11 -22 16 -22 12 0
-4 -7 2 -16 13 -8 10 -13 12 -9 4 4 -10 2 -9 -8 3 -8 9 -19 17 -25 17 -6 0
-16 8 -21 18 -6 9 -11 13 -11 7 0 -5 -12 4 -26 20 -14 17 -23 23 -19 15 4 -8
-9 2 -27 23 -18 20 -38 37 -43 37 -6 0 -35 25 -65 56 -30 31 -48 54 -40 50 8
-4 -3 9 -25 29 -22 20 -40 41 -40 46 0 5 -10 16 -23 24 -12 9 -20 20 -17 25 3
5 -4 14 -15 20 -11 6 -18 15 -15 21 4 5 -1 12 -9 15 -9 3 -14 10 -11 14 3 4
-2 11 -11 14 -8 3 -12 10 -9 16 3 6 -1 13 -9 16 -9 3 -13 10 -10 15 3 5 0 9
-5 9 -6 0 -11 7 -11 15 0 8 -5 15 -11 15 -5 0 -8 4 -5 9 4 5 2 11 -3 13 -13 5
-71 125 -64 132 4 3 2 6 -3 6 -5 0 -10 10 -11 22 -1 11 -8 25 -15 29 -7 5 -9
9 -4 9 5 0 3 6 -3 13 -6 8 -8 17 -4 20 3 4 1 7 -5 7 -6 0 -9 7 -6 15 4 8 1 15
-7 15 -7 0 -9 3 -6 7 4 3 2 12 -4 20 -6 7 -8 13 -4 13 4 0 2 7 -5 15 -7 8 -9
15 -5 15 4 0 2 7 -5 15 -7 8 -9 15 -5 15 4 0 2 7 -5 15 -6 8 -9 19 -6 24 4 5
1 13 -5 16 -5 4 -8 13 -5 20 2 7 2 16 -2 20 -4 4 -8 16 -9 28 -1 12 -5 38 -8
57 -7 45 -14 120 -19 193 l-3 57 356 2 356 3 -355 5 -355 6 355 -1 355 0 -1
-82 c-1 -53 2 -80 9 -76 6 4 8 -5 4 -25 -4 -20 -2 -32 4 -32 6 0 8 -9 4 -21
-5 -16 -4 -19 5 -14 9 5 10 2 5 -14 -4 -12 -2 -21 4 -21 6 0 8 -7 5 -15 -4 -8
-1 -15 6 -15 6 0 8 -4 5 -10 -3 -5 -1 -10 5 -10 7 0 10 -7 6 -15 -3 -8 -1 -15
5 -15 6 0 7 -4 4 -10 -3 -5 -1 -10 5 -10 6 0 8 -4 5 -10 -3 -5 -1 -10 5 -10 6
0 8 -4 5 -10 -3 -5 -1 -10 5 -10 6 0 8 -4 5 -10 -3 -5 -1 -10 5 -10 6 0 8 -4
5 -10 -3 -5 -1 -10 5 -10 6 0 9 -4 6 -9 -3 -5 1 -12 10 -15 8 -3 12 -10 9 -16
-3 -5 -1 -10 4 -10 6 0 10 -4 9 -9 -2 -5 6 -17 17 -26 11 -9 13 -14 5 -10 -8
4 -4 -2 10 -14 14 -11 25 -23 26 -28 0 -11 138 -147 146 -145 4 1 12 -7 18
-18 6 -11 15 -18 21 -15 5 4 12 -1 15 -9 3 -9 10 -13 15 -10 5 3 12 -2 15 -10
3 -9 10 -13 15 -10 5 3 9 1 9 -3 0 -10 80 -49 93 -45 4 1 7 -2 7 -8 0 -6 3 -9
8 -8 4 0 16 -2 27 -6 55 -21 72 -27 93 -31 12 -3 32 -7 45 -10 73 -17 282 -23
352 -10 60 11 70 13 75 16 3 1 10 3 15 4 6 2 12 4 15 5 3 1 13 3 23 5 10 2 26
7 35 11 9 4 19 8 22 8 3 1 15 7 26 14 12 6 24 8 28 5 3 -3 6 -1 6 5 0 7 3 11
8 10 14 -4 52 13 52 23 0 6 5 7 10 4 6 -3 10 -1 10 4 0 6 7 11 15 11 8 0 15 5
15 11 0 5 4 8 9 5 5 -3 11 1 15 9 3 8 12 15 20 15 7 0 16 7 20 15 3 8 10 15
15 15 12 0 166 153 163 162 -1 4 9 15 23 24 14 9 22 20 19 25 -3 5 2 12 10 15
9 3 13 10 10 15 -3 5 2 12 10 15 9 3 13 10 10 15 -3 5 0 9 6 9 6 0 8 5 5 10
-3 6 -1 10 6 10 7 0 10 3 6 6 -3 4 1 13 9 21 8 8 12 19 9 24 -4 5 -1 9 5 9 6
0 8 5 5 10 -3 6 -2 10 4 10 6 0 8 7 5 15 -4 8 -1 15 6 15 6 0 9 4 5 9 -3 5 -1
12 5 16 6 4 8 10 5 15 -3 5 -1 11 4 15 6 3 8 12 4 20 -3 8 0 15 7 15 8 0 10 9
6 25 -4 15 -2 25 4 25 7 0 9 13 4 35 -4 24 -3 35 6 35 8 0 11 18 9 58 -2 31
-2 207 -1 390 l2 332 353 0 352 -1 4 -122z m-1869 -2510 c0 -5 9 -5 20 -2 11
4 20 2 20 -4 0 -6 7 -7 17 -4 12 5 14 3 8 -7 -6 -10 -4 -12 8 -7 10 3 17 2 17
-3 0 -6 4 -9 9 -7 5 1 17 -7 26 -18 9 -11 13 -13 9 -5 -4 8 7 2 24 -14 18 -17
32 -35 32 -42 0 -7 5 -14 11 -16 5 -2 12 -12 14 -23 2 -11 4 -20 5 -20 1 0 3
-13 5 -28 3 -19 -3 -35 -18 -50 -23 -23 -67 -33 -67 -16 0 6 -5 7 -11 4 -6 -4
-13 2 -16 14 -3 12 -10 21 -15 21 -5 0 -6 5 -3 10 3 6 1 10 -5 10 -6 0 -10 3
-8 8 5 9 -70 81 -77 74 -3 -3 -5 0 -5 6 0 6 -7 9 -15 6 -8 -4 -15 -2 -15 4 0
5 -18 10 -40 10 -22 0 -40 -4 -40 -9 0 -6 -9 -7 -21 -4 -15 5 -19 4 -15 -4 4
-6 2 -12 -3 -12 -6 -1 -15 -2 -19 -3 -12 -2 -47 -38 -47 -48 0 -5 -7 -13 -15
-18 -8 -5 -11 -10 -7 -10 5 0 5 -6 0 -12 -4 -7 -8 -16 -9 -20 -1 -5 -2 -9 -4
-10 -6 -8 -11 -62 -11 -123 1 -105 2 -115 13 -115 6 0 8 -7 4 -15 -3 -8 -1
-15 5 -15 6 0 7 -4 4 -10 -3 -5 -1 -10 4 -10 6 0 10 -3 9 -7 -4 -12 35 -53 44
-47 4 3 11 -1 14 -10 3 -8 12 -12 20 -9 8 3 14 1 14 -3 0 -5 25 -9 55 -9 30 0
55 4 55 9 0 4 6 6 14 3 8 -3 17 1 20 10 4 9 9 13 13 9 9 -8 43 24 43 41 0 7 5
13 11 13 5 0 7 5 4 10 -3 6 -1 10 5 10 6 0 9 4 5 9 -3 5 -1 12 5 16 6 4 8 11
5 16 -4 5 -1 9 4 9 6 0 10 6 9 13 -2 6 3 11 10 9 6 -1 12 2 12 8 0 6 9 10 20
10 11 0 20 -5 20 -12 0 -6 3 -9 6 -6 3 4 13 -1 23 -11 19 -19 20 -93 2 -115
-6 -7 -8 -15 -6 -18 3 -3 -15 -27 -40 -54 -25 -27 -45 -45 -45 -40 0 6 -7 1
-15 -10 -8 -10 -15 -15 -15 -10 0 5 -6 3 -14 -3 -21 -17 -51 -23 -148 -27 -51
-2 -90 0 -93 6 -4 6 -10 8 -15 5 -5 -3 -20 0 -32 7 -13 7 -26 11 -30 10 -5 -1
-8 2 -8 8 0 6 -6 10 -14 10 -8 0 -17 7 -20 16 -3 8 -10 13 -15 9 -5 -3 -13 0
-17 6 -5 8 -2 10 7 5 8 -4 2 3 -13 16 -16 13 -28 29 -28 36 0 7 -5 12 -11 12
-5 0 -7 5 -4 10 3 6 1 10 -5 10 -6 0 -8 5 -5 10 3 6 1 10 -5 10 -7 0 -10 7 -6
15 3 8 1 15 -5 15 -6 0 -9 7 -5 15 3 8 1 15 -5 15 -7 0 -9 10 -5 25 4 14 2 25
-4 25 -6 0 -10 29 -10 70 0 41 4 70 10 70 6 0 8 11 4 25 -4 15 -2 25 5 25 6 0
8 7 5 15 -4 8 -1 15 5 15 6 0 8 7 5 15 -4 8 -1 15 6 15 6 0 8 5 5 10 -3 6 -1
10 5 10 6 0 9 4 5 9 -3 6 3 14 12 20 10 6 14 11 9 11 -5 0 9 18 30 39 21 22
41 38 45 35 4 -2 10 3 13 12 3 8 10 12 16 9 5 -3 10 -1 10 5 0 6 5 8 10 5 6
-3 10 -1 10 5 0 7 7 10 15 6 8 -3 15 -1 15 5 0 6 9 8 20 4 11 -3 20 -3 20 2 0
4 32 8 70 8 39 0 70 -4 70 -8z m850 -1 c0 -4 11 -5 25 -2 14 4 25 2 25 -3 0
-6 7 -8 15 -5 8 4 15 1 15 -6 0 -6 5 -8 10 -5 6 3 10 1 10 -5 0 -6 4 -9 10 -5
5 3 32 -17 60 -45 28 -27 47 -50 43 -50 -4 0 2 -7 13 -15 10 -8 15 -15 11 -15
-5 0 -1 -7 8 -16 9 -9 14 -23 11 -30 -3 -8 0 -14 5 -14 6 0 9 -9 6 -20 -3 -11
-1 -20 5 -20 6 0 7 -16 3 -40 -5 -27 -3 -46 6 -56 10 -13 10 -17 0 -24 -9 -5
-11 -20 -6 -49 4 -25 3 -41 -3 -41 -6 0 -8 -9 -5 -20 3 -11 0 -20 -6 -20 -5 0
-8 -7 -5 -15 4 -8 1 -15 -6 -15 -6 0 -8 -4 -5 -10 3 -5 1 -10 -5 -10 -6 0 -8
-4 -5 -10 3 -5 1 -10 -4 -10 -6 0 -10 -4 -9 -8 2 -5 -10 -21 -27 -36 -16 -16
-21 -22 -10 -15 18 13 19 13 6 -3 -7 -10 -17 -16 -21 -13 -5 3 -15 -4 -23 -15
-7 -11 -17 -17 -20 -13 -4 3 -7 1 -7 -5 0 -9 -22 -21 -52 -28 -5 -1 -9 -2 -10
-4 -24 -19 -234 -19 -268 0 -14 8 -28 13 -32 12 -5 -1 -8 3 -8 9 0 5 -4 8 -9
5 -12 -8 -103 73 -95 85 3 5 -2 12 -10 15 -9 3 -13 10 -10 15 3 5 0 9 -7 9 -7
0 -9 3 -6 7 4 3 2 12 -3 19 -6 6 -13 23 -16 35 -3 13 -8 38 -11 54 -9 43 -9
144 0 185 4 19 9 40 10 47 5 19 41 88 50 91 4 2 5 7 2 11 -2 4 12 23 32 42 20
19 33 27 29 19 -5 -9 -2 -8 7 2 8 10 17 15 20 11 4 -3 9 1 13 10 3 9 12 13 20
10 8 -3 14 0 14 6 0 6 7 8 15 5 8 -4 15 -2 15 4 0 6 9 8 20 5 11 -3 20 -1 20
3 0 5 34 9 75 9 41 0 75 -4 75 -9z m2453 0 c-4 -5 3 -7 15 -4 12 4 22 2 22 -4
0 -6 7 -8 15 -4 8 3 15 1 15 -5 0 -6 5 -7 10 -4 6 3 10 1 10 -4 0 -6 4 -10 9
-8 10 3 66 -55 63 -65 -1 -5 2 -8 8 -8 5 0 6 -7 3 -17 -4 -11 -3 -14 5 -9 8 5
12 -3 12 -23 0 -17 -5 -31 -11 -31 -5 0 -8 -4 -5 -9 7 -11 -18 -33 -27 -24 -4
3 -7 2 -7 -3 0 -5 -11 -10 -25 -10 -14 -1 -23 1 -20 6 2 4 -7 12 -21 19 -14 6
-22 16 -19 21 3 6 1 10 -5 10 -6 0 -8 5 -5 10 3 6 1 10 -5 10 -6 0 -9 4 -6 9
7 11 -28 43 -37 34 -4 -3 -7 -1 -7 5 0 6 -7 9 -15 6 -8 -4 -15 -2 -15 3 0 6
-20 10 -45 11 -30 0 -43 -3 -38 -11 4 -6 0 -8 -10 -4 -10 4 -17 1 -17 -5 0 -6
-3 -8 -6 -5 -10 9 -48 -44 -49 -67 0 -21 35 -65 48 -59 4 2 7 0 7 -6 0 -6 7
-8 15 -5 8 4 15 2 15 -4 0 -6 10 -8 22 -4 15 4 19 2 13 -7 -5 -10 -2 -11 14
-6 13 4 21 2 21 -5 0 -7 8 -9 20 -5 11 3 20 2 20 -3 0 -6 9 -8 20 -5 11 3 20
0 20 -6 0 -5 7 -8 15 -5 8 4 15 1 15 -5 0 -6 6 -8 14 -5 8 3 24 -4 35 -15 12
-12 21 -19 21 -17 0 3 15 -10 32 -27 18 -18 31 -35 30 -39 -1 -5 3 -8 9 -8 6
0 9 -7 5 -15 -3 -8 -2 -15 3 -15 4 0 8 -25 8 -55 0 -30 -4 -55 -9 -55 -6 0 -8
-7 -4 -15 3 -8 1 -15 -5 -15 -6 0 -7 -4 -4 -10 3 -5 1 -10 -5 -10 -6 0 -9 -4
-6 -9 3 -5 -1 -12 -9 -15 -8 -3 -14 -11 -13 -18 2 -7 -3 -12 -10 -13 -8 0 -19
-8 -26 -17 -7 -10 -16 -15 -19 -11 -4 3 -7 1 -7 -6 0 -7 -4 -9 -10 -6 -5 3
-10 1 -10 -4 0 -6 -3 -10 -7 -10 -5 1 -10 0 -13 -1 -26 -10 -57 -13 -130 -13
-73 0 -104 3 -130 13 -3 1 -8 2 -12 1 -5 0 -8 4 -8 10 0 5 -4 7 -10 4 -5 -3
-10 -1 -10 4 0 6 -3 10 -7 9 -10 -3 -78 65 -75 75 1 4 -3 7 -9 7 -5 0 -7 5 -4
10 3 6 1 10 -5 10 -6 0 -9 4 -5 9 3 5 1 12 -4 15 -13 8 -7 72 9 91 7 8 17 12
22 9 6 -4 15 0 20 7 7 10 11 11 14 2 3 -7 11 -10 18 -7 7 3 19 -3 27 -13 12
-16 12 -17 -1 -8 -11 7 -10 4 1 -6 10 -9 19 -24 21 -35 2 -10 10 -24 18 -31 8
-7 12 -13 8 -13 -5 0 0 -8 10 -18 9 -11 20 -17 25 -15 4 2 7 -1 7 -7 0 -6 5
-8 10 -5 6 3 10 3 10 -2 0 -4 25 -8 55 -8 30 0 55 4 55 9 0 4 7 6 15 2 8 -3
15 0 15 6 0 6 3 9 6 5 8 -7 50 35 46 47 -2 5 2 13 9 17 7 4 9 14 4 25 -5 11
-7 22 -7 27 1 4 -2 7 -8 7 -6 0 -9 6 -7 13 1 6 -4 11 -11 9 -7 -1 -15 4 -18
12 -3 8 -12 12 -20 9 -8 -3 -14 0 -14 6 0 6 -7 8 -15 5 -8 -4 -15 -1 -15 6 0
7 -8 9 -20 5 -12 -4 -20 -2 -20 5 0 7 -8 9 -20 5 -12 -4 -20 -2 -20 5 0 7 -8
9 -20 5 -11 -4 -20 -2 -20 4 0 6 -7 8 -15 5 -8 -4 -15 -1 -15 5 0 6 -7 8 -17
4 -12 -5 -14 -3 -8 7 6 10 4 12 -8 7 -9 -3 -18 0 -21 9 -3 8 -9 13 -13 12 -4
-1 -21 10 -37 25 -16 15 -25 27 -21 27 4 0 1 7 -6 16 -21 25 -27 74 -16 124 3
14 6 26 8 28 1 1 2 5 3 10 3 12 70 77 79 74 4 -1 7 3 7 9 0 5 5 7 10 4 6 -3
10 -1 10 5 0 7 7 10 15 6 8 -3 15 -1 15 5 0 6 9 8 20 4 11 -3 20 -3 20 2 0 5
36 8 79 8 46 0 77 -4 74 -9z m-1580 -20 c-4 -5 6 -6 21 -2 15 4 26 2 26 -3 0
-6 7 -8 15 -5 8 4 15 1 15 -6 0 -6 4 -9 9 -6 5 3 12 -1 15 -10 3 -8 10 -13 14
-10 5 3 24 -10 42 -29 19 -19 30 -35 25 -35 -5 0 0 -7 11 -16 10 -8 12 -13 4
-9 -8 4 -6 -1 4 -9 11 -9 16 -16 12 -16 -5 0 -3 -7 4 -15 7 -8 9 -15 5 -15 -4
0 -2 -6 4 -13 6 -8 8 -17 4 -20 -3 -4 -2 -12 4 -19 11 -15 11 -198 0 -215 -5
-7 -6 -17 -2 -22 3 -5 1 -12 -5 -16 -6 -4 -8 -10 -5 -15 3 -5 1 -11 -5 -15 -6
-4 -8 -11 -5 -16 4 -5 1 -9 -6 -9 -7 0 -9 -3 -6 -7 4 -3 -1 -12 -11 -20 -10
-9 -11 -12 -2 -7 8 4 -5 -12 -30 -36 -25 -24 -48 -43 -52 -42 -5 1 -8 -3 -8
-9 0 -5 -4 -7 -10 -4 -5 3 -10 1 -10 -4 0 -6 -3 -10 -7 -10 -5 1 -10 0 -13 -1
-28 -11 -69 -14 -215 -16 -142 -3 -171 -1 -178 11 -4 9 -12 13 -18 10 -5 -4
-6 2 -2 11 3 10 2 15 -3 12 -5 -4 -9 119 -9 308 0 184 4 314 9 314 5 0 6 3 3
7 -9 9 13 34 24 27 5 -3 9 -2 9 3 0 4 74 8 164 8 94 0 162 -4 159 -9z m1000
-8 c7 -7 13 -24 13 -38 0 -50 -12 -53 -209 -51 l-182 2 0 -88 0 -88 164 3
c153 3 165 2 182 -17 19 -21 24 -47 13 -75 -3 -9 -10 -13 -15 -10 -5 3 -9 2
-9 -3 0 -4 -74 -7 -164 -5 l-165 3 -3 -108 -3 -108 183 3 c128 2 182 0 182 -8
0 -6 3 -9 8 -7 14 9 28 -18 27 -53 0 -22 -5 -34 -13 -33 -6 2 -12 -1 -12 -7 0
-6 -92 -9 -239 -9 -250 0 -268 3 -280 45 -8 29 -12 586 -5 603 4 9 6 20 5 25
-3 16 20 35 36 29 9 -4 14 -2 11 3 -10 15 460 8 475 -8z"/>
<path d="M9306 7798 c5 -8 0 -9 -14 -6 -12 4 -22 2 -22 -4 0 -5 -4 -6 -10 -3
-5 3 -10 1 -10 -5 0 -6 -4 -9 -9 -6 -4 3 -19 -6 -31 -19 -13 -14 -19 -25 -14
-25 5 0 0 -7 -10 -15 -11 -8 -17 -15 -13 -15 4 0 2 -10 -5 -22 -14 -27 -16
-39 -20 -136 -2 -40 0 -76 5 -79 4 -3 6 -11 3 -19 -3 -7 -1 -16 5 -19 5 -4 7
-11 4 -16 -4 -5 -1 -9 5 -9 6 0 8 -4 5 -10 -3 -5 -1 -10 4 -10 6 0 11 -5 11
-11 0 -14 42 -53 61 -57 8 -2 17 -8 20 -14 3 -5 9 -9 13 -9 3 1 7 1 9 1 28 -6
107 -3 107 3 0 5 7 7 15 3 8 -3 15 0 15 6 0 6 3 8 7 5 3 -4 13 2 20 13 8 11
19 17 25 14 7 -4 8 -2 4 4 -3 6 3 16 14 22 11 6 18 15 15 21 -4 5 -1 9 5 9 6
0 9 4 5 9 -3 5 -1 12 5 16 6 4 8 10 5 15 -3 5 -1 11 3 14 8 5 9 196 2 204 -1
1 -3 5 -4 10 -12 43 -68 113 -97 120 -8 2 -15 7 -17 12 -2 5 -10 6 -18 3 -8
-3 -14 0 -14 6 0 6 -19 11 -46 11 -32 0 -43 -3 -38 -12z"/>
<path d="M10067 7783 c-4 -3 -6 -115 -5 -247 l2 -241 6 210 6 210 2 -207 2
-207 90 -3 c50 -2 90 1 90 6 0 4 7 6 15 2 8 -3 15 -1 15 5 0 6 3 9 8 7 4 -2
21 10 37 26 17 16 24 26 18 22 -9 -5 -11 -2 -7 8 3 9 10 13 15 10 5 -3 6 2 3
10 -3 9 -1 16 5 16 6 0 8 7 5 15 -4 8 -2 15 2 15 5 0 9 47 9 104 0 60 -4 102
-9 98 -5 -3 -7 5 -4 16 4 12 2 22 -4 22 -5 0 -7 4 -4 9 3 5 -1 12 -10 15 -9 4
-14 9 -10 13 8 9 -25 44 -35 37 -5 -3 -9 0 -9 6 0 6 -4 8 -10 5 -5 -3 -10 -2
-10 4 0 6 -12 8 -32 4 -22 -4 -29 -3 -24 5 5 9 -15 12 -72 12 -43 0 -82 -3
-85 -7z"/>
</g>
</svg>
