<!DOCTYPE svg PUBLIC "-//W3C//DTD SVG 1.1//EN" "http://www.w3.org/Graphics/SVG/1.1/DTD/svg11.dtd">
<!-- Uploaded to: SVG Repo, www.svgrepo.com, Transformed by: SVG Repo Mixer Tools -->
<svg width="800px" height="800px" viewBox="0 0 24 24" fill="none" xmlns="http://www.w3.org/2000/svg">
<g id="SVGRepo_bgCarrier" stroke-width="0"/>
<g id="SVGRepo_tracerCarrier" stroke-linecap="round" stroke-linejoin="round"/>
<g id="SVGRepo_iconCarrier"> <path d="M9.16 13.4101C9.04 14.0801 8.55 17.2401 8.41 18.1301C8.41 18.2001 8.41 18.2201 8.3 18.2201H5.68C5.61811 18.2207 5.55681 18.2079 5.50031 18.1826C5.4438 18.1574 5.39341 18.1202 5.35259 18.0737C5.31176 18.0272 5.28146 17.9724 5.26376 17.9131C5.24605 17.8538 5.24136 17.7913 5.25 17.7301L7.31 4.61006C7.33743 4.44459 7.421 4.29361 7.54666 4.18252C7.67233 4.07142 7.83241 4.00699 8 4.00006C13.35 4.00006 13.8 3.87006 15.17 4.41006C17.28 5.23006 17.48 7.21006 16.72 9.36006C15.96 11.5101 14.17 12.5101 11.79 12.5401C10.27 12.5401 9.35 12.3001 9.14 13.4001L9.16 13.4101ZM17.8 8.33006C17.74 8.28006 17.72 8.27006 17.7 8.33006C17.6274 8.73409 17.5237 9.13193 17.39 9.52006C15.99 13.5201 12.1 13.1901 10.2 13.1901C10.1524 13.1845 10.1042 13.1888 10.0584 13.2027C10.0125 13.2165 9.97003 13.2396 9.93347 13.2705C9.89692 13.3015 9.86709 13.3396 9.84586 13.3825C9.82462 13.4254 9.81241 13.4722 9.81 13.5201C9.02 18.5201 8.81 19.5201 8.81 19.5201C8.79809 19.5754 8.79868 19.6326 8.81172 19.6877C8.82476 19.7427 8.84992 19.7942 8.88538 19.8382C8.92083 19.8823 8.96568 19.9179 9.01665 19.9425C9.06762 19.967 9.12343 19.9798 9.18 19.9801H11.42C11.5677 19.9772 11.7097 19.9226 11.8212 19.8257C11.9327 19.7289 12.0066 19.5959 12.03 19.4501C12.03 19.2601 12.03 19.6701 12.54 16.2301C12.7 15.4601 13.04 15.5401 13.54 15.5401C16.03 15.5401 17.98 14.5401 18.54 11.5401C18.726 10.9716 18.7457 10.3619 18.5969 9.78256C18.4481 9.20326 18.1369 8.67852 17.7 8.27006L17.8 8.33006Z" fill="#EDEDED"/> </g>
</svg>