<?xml version="1.0" standalone="no"?>
<!DOCTYPE svg PUBLIC "-//W3C//DTD SVG 20010904//EN"
 "http://www.w3.org/TR/2001/REC-SVG-20010904/DTD/svg10.dtd">
<svg version="1.0" xmlns="http://www.w3.org/2000/svg"
 width="2380.000000pt" height="654.000000pt" viewBox="0 0 2380.000000 654.000000"
 preserveAspectRatio="xMidYMid meet">
<metadata>
Created by potrace 1.16, written by Peter Selinger 2001-2019
</metadata>
<g transform="translate(0.000000,654.000000) scale(0.100000,-0.100000)"
fill="#000000" stroke="none">
<path d="M1020 5978 l0 -78 43 0 c59 0 150 -25 227 -62 87 -42 205 -160 248
-249 42 -86 52 -159 52 -386 l0 -193 360 0 360 0 0 167 0 166 838 -6 c791 -6
841 -7 914 -26 246 -64 478 -245 602 -472 108 -197 143 -482 86 -689 -93 -337
-400 -620 -739 -684 -54 -11 -140 -16 -248 -16 l-164 0 3 423 3 424 43 87 c31
61 61 105 101 144 98 97 245 171 358 180 l63 5 0 73 0 74 -1307 0 c-720 0
-1514 3 -1766 7 l-457 6 6 -359 c4 -197 8 -360 9 -362 1 -2 505 -6 1119 -9
l1116 -6 0 -344 0 -343 -290 0 -290 0 0 245 0 245 -360 0 -360 0 2 -1117 3
-1118 28 -57 c37 -76 104 -143 175 -176 49 -23 70 -27 147 -27 77 1 99 5 152
29 81 37 152 111 181 189 21 56 22 70 22 567 l0 510 858 0 c819 0 862 -1 935
-20 414 -105 699 -444 737 -874 5 -61 10 -389 10 -728 l0 -618 640 0 640 0 0
74 0 73 -85 5 c-74 4 -94 9 -170 47 -149 74 -261 201 -305 346 -9 27 -15 192
-20 525 -8 536 -8 535 -80 751 -44 132 -119 294 -180 389 -52 80 -157 207
-207 251 -21 18 -69 61 -107 96 l-69 63 87 81 c152 143 310 376 390 575 47
119 92 290 107 410 15 120 7 398 -15 517 -77 418 -340 823 -681 1049 -173 115
-356 196 -561 249 -118 31 -122 31 -479 40 -198 4 -892 10 -1543 11 l-1182 3
0 -77z"/>
<path d="M7840 6045 c-112 -16 -160 -30 -249 -71 -184 -85 -293 -227 -344
-449 -21 -89 -21 -105 -25 -2095 -3 -2038 -1 -2193 34 -2330 38 -150 121 -279
229 -355 74 -52 103 -68 185 -95 140 -47 187 -50 830 -50 722 0 763 4 945 99
135 70 231 184 286 341 45 125 49 193 49 746 l0 514 -405 0 -405 0 0 -456 c0
-306 -4 -470 -11 -500 -16 -61 -57 -101 -117 -111 -61 -10 -623 -10 -684 0
-57 10 -99 47 -116 104 -17 56 -17 3913 -1 3979 14 53 52 87 119 104 30 7 152
10 365 8 300 -3 322 -4 360 -24 26 -13 47 -34 60 -60 19 -37 20 -62 23 -516
l3 -478 405 0 405 0 -3 568 c-5 634 -3 621 -78 777 -96 199 -270 311 -545 350
-134 20 -1186 19 -1315 0z"/>
<path d="M11145 6049 c-273 -34 -462 -154 -559 -353 -42 -88 -64 -175 -76
-308 -13 -141 -13 -3970 0 -4113 12 -141 30 -210 81 -314 74 -150 208 -258
384 -309 138 -41 202 -43 880 -40 736 5 729 4 892 83 152 75 249 182 305 340
55 153 53 55 53 2305 0 1982 -1 2089 -18 2170 -68 317 -259 487 -600 535 -81
12 -225 14 -687 14 -322 -1 -616 -5 -655 -10z m1055 -653 c63 -24 87 -51 100
-110 8 -36 10 -608 8 -1981 -3 -1907 -3 -1930 -23 -1970 -11 -22 -36 -48 -55
-60 -34 -19 -51 -20 -425 -20 -375 0 -391 1 -425 21 -70 41 -65 -131 -65 2054
0 2197 -6 2017 69 2054 60 30 135 35 466 32 257 -3 312 -6 350 -20z"/>
<path d="M13980 3335 l0 -2725 1021 0 c671 0 1045 4 1092 11 150 22 289 78
378 154 120 101 194 255 219 455 8 70 10 642 8 2165 l-3 2070 -23 84 c-66 248
-208 397 -442 464 -154 45 -209 47 -1257 47 l-993 0 0 -2725z m1824 2070 c54
-28 75 -60 87 -135 6 -42 9 -746 7 -1985 l-3 -1920 -23 -47 c-42 -84 -32 -83
-594 -86 l-488 -3 0 2101 0 2101 488 -3 c464 -3 489 -4 526 -23z"/>
<path d="M17550 3335 l0 -2725 1190 0 1190 0 0 320 0 320 -790 0 -790 0 0 925
0 925 628 2 627 3 0 320 0 320 -627 3 -628 2 0 835 0 835 760 0 760 0 0 320 0
320 -1160 0 -1160 0 0 -2725z"/>
<path d="M21045 6049 c-157 -21 -300 -77 -402 -159 -60 -47 -142 -164 -171
-243 -56 -147 -55 -140 -59 -992 -4 -828 0 -960 37 -1093 56 -203 178 -344
361 -418 132 -54 159 -56 669 -63 l476 -6 48 -25 c35 -18 55 -37 70 -65 21
-40 21 -48 21 -825 0 -765 -1 -786 -20 -825 -11 -22 -36 -48 -55 -60 -33 -19
-52 -20 -350 -20 -368 0 -376 1 -413 82 -21 47 -22 60 -25 446 l-3 397 -400 0
-399 0 0 -442 c0 -545 10 -631 93 -793 25 -50 91 -132 136 -170 55 -46 151
-97 226 -120 146 -44 203 -47 830 -42 674 4 671 4 841 87 130 63 217 151 274
274 78 166 75 124 75 1191 l0 950 -23 85 c-71 270 -230 423 -502 485 -63 15
-154 19 -555 24 -510 7 -524 8 -567 57 -40 46 -41 77 -45 731 -5 663 1 796 35
843 10 14 39 36 65 49 44 22 62 24 260 28 339 8 447 -12 492 -88 19 -32 20
-55 23 -436 l3 -403 400 0 400 0 -3 498 c-4 473 -5 501 -26 575 -59 212 -189
359 -380 431 -156 58 -168 59 -792 62 -316 1 -606 -2 -645 -7z"/>
<path d="M2890 2453 c0 -5 -1 -190 -3 -413 -3 -380 -4 -410 -25 -485 -71 -260
-272 -493 -526 -611 -141 -64 -212 -79 -391 -79 -137 0 -172 3 -240 23 -294
84 -521 290 -636 577 -37 94 -63 223 -57 287 l5 48 -360 0 -360 0 7 -112 c18
-290 130 -604 303 -848 84 -118 282 -318 386 -389 197 -134 466 -242 700 -282
105 -18 148 -20 307 -16 203 6 305 23 475 77 346 111 670 364 860 671 167 270
242 492 265 792 11 141 13 491 3 655 l-6 112 -354 0 c-194 0 -353 -3 -353 -7z"/>
</g>
</svg>
